<?xml version="1.0" encoding="UTF-8" ?>
<!DOCTYPE svg PUBLIC "-//W3C//DTD SVG 1.1//EN" "http://www.w3.org/Graphics/SVG/1.1/DTD/svg11.dtd">
<svg width="1063pt" height="958pt" viewBox="0 0 1063 958" version="1.1" xmlns="http://www.w3.org/2000/svg">
<g id="#2d2d2df0">
<path fill="#2d2d2d" opacity="0.94" d=" M 867.98 0.00 L 868.07 0.00 C 875.20 3.29 882.51 7.84 885.75 15.34 C 888.89 21.96 887.09 29.57 889.30 36.41 C 891.04 41.79 893.58 46.87 896.11 51.91 C 898.59 56.88 903.05 60.53 905.35 65.61 C 907.26 69.81 909.52 73.90 912.82 77.17 C 914.91 79.61 917.99 82.34 917.13 85.92 C 915.17 93.06 909.65 98.68 903.39 102.35 C 900.07 104.12 898.33 107.53 896.72 110.75 C 894.50 109.19 892.82 107.08 891.00 105.13 C 886.34 104.30 881.63 105.31 877.08 106.28 C 876.24 105.13 875.41 103.97 874.59 102.82 C 872.04 103.98 869.17 105.00 867.62 107.50 C 864.37 112.47 860.75 117.38 859.36 123.27 C 857.04 124.16 854.03 124.70 853.47 127.58 C 852.14 131.96 848.30 135.26 847.99 139.95 C 847.31 145.35 843.29 151.27 847.04 156.38 C 849.65 156.56 852.26 155.79 854.87 156.13 C 859.60 158.33 863.44 162.02 867.71 164.98 C 863.37 174.78 865.39 185.86 869.49 195.35 C 871.15 198.71 870.42 202.40 869.58 205.85 C 871.32 208.61 872.33 211.73 872.63 214.98 C 875.97 213.82 879.40 212.39 883.02 212.74 C 886.38 213.07 889.66 213.87 892.99 214.46 C 894.93 212.60 896.75 210.57 899.03 209.10 C 903.31 206.49 908.59 205.76 912.45 202.41 C 916.10 199.06 918.73 194.66 922.85 191.81 C 925.43 189.98 928.75 190.23 931.75 189.81 C 935.63 185.40 941.27 183.46 946.53 181.26 C 947.84 185.04 948.97 188.87 950.45 192.59 C 951.18 194.69 952.16 197.08 951.22 199.28 C 948.97 203.79 943.93 205.89 941.22 210.01 C 941.19 212.41 941.65 214.79 941.70 217.20 C 940.19 220.65 937.63 223.54 935.85 226.85 C 938.14 231.08 939.53 235.79 939.09 240.64 C 936.98 241.19 934.89 241.74 932.80 242.31 C 933.61 246.17 934.24 250.09 935.32 253.90 C 936.25 257.47 939.50 259.74 940.94 263.06 C 941.62 266.30 939.18 269.05 938.33 272.01 C 941.02 276.98 945.04 281.07 948.87 285.18 C 952.28 288.63 951.03 294.28 954.20 297.86 C 956.11 300.20 958.65 302.20 959.58 305.19 C 961.21 309.98 960.69 315.13 961.16 320.09 C 961.43 324.46 963.24 328.63 962.96 333.05 C 962.76 339.18 961.21 345.88 964.60 351.48 C 965.54 353.62 968.11 353.72 970.09 354.19 C 978.36 355.64 986.52 358.66 993.20 363.83 C 998.03 367.37 998.66 374.00 1002.95 378.00 C 1006.71 381.81 1011.63 384.07 1016.01 387.05 C 1021.75 391.11 1021.36 399.83 1027.55 403.49 C 1033.80 407.31 1040.17 411.91 1042.71 419.12 C 1044.95 418.00 1047.18 416.82 1049.38 415.60 C 1053.71 419.74 1058.41 423.47 1062.62 427.73 C 1056.08 433.46 1047.76 438.31 1044.81 446.99 C 1043.01 451.42 1043.34 456.25 1042.90 460.91 C 1040.94 463.27 1038.32 464.96 1036.21 467.17 C 1033.26 469.93 1030.59 473.45 1026.49 474.50 C 1022.46 475.47 1018.20 475.52 1014.34 477.16 C 1006.25 480.45 998.72 484.91 990.92 488.82 C 987.98 487.95 984.74 486.34 981.76 487.95 C 978.08 489.76 974.02 490.32 969.96 490.26 C 967.09 495.06 966.67 500.73 965.84 506.13 C 964.81 513.70 963.88 521.31 961.69 528.66 C 960.01 534.07 961.58 540.04 959.20 545.28 C 955.35 553.72 952.62 562.76 951.50 571.97 C 950.82 576.84 953.24 581.24 956.27 584.83 C 960.29 589.19 958.71 595.46 958.73 600.81 C 953.41 603.60 948.46 607.12 944.55 611.71 C 947.00 616.07 948.24 620.98 950.70 625.34 C 952.34 628.29 953.93 631.51 953.63 635.00 C 953.54 638.78 949.40 641.11 949.61 644.98 C 949.21 650.62 949.66 657.12 945.78 661.71 C 941.97 663.33 937.91 658.63 934.27 661.23 C 925.95 665.94 918.28 671.71 911.15 678.05 C 900.31 685.45 890.63 694.40 879.64 701.59 C 875.10 704.32 872.46 709.59 867.21 711.19 C 864.10 712.49 860.23 713.60 858.90 717.06 C 858.64 719.36 859.64 721.61 859.50 723.91 C 857.79 727.87 855.55 731.61 853.20 735.22 C 851.06 738.64 847.04 740.19 844.68 743.38 C 842.99 749.74 845.91 757.18 841.76 762.93 C 838.44 767.48 834.19 771.35 829.55 774.53 C 826.80 776.71 823.18 775.56 820.03 775.37 C 820.67 777.58 821.53 779.78 821.85 782.09 C 818.35 788.89 810.59 791.10 803.65 792.49 C 800.83 798.85 796.90 804.62 793.95 810.91 C 791.51 816.01 790.64 821.79 787.55 826.59 C 786.21 828.98 783.94 831.07 783.94 834.00 C 783.52 839.99 782.37 845.90 782.11 851.91 C 781.87 854.15 782.15 856.73 780.60 858.59 C 778.25 861.66 775.87 864.73 774.29 868.28 C 771.92 873.38 768.71 878.00 765.85 882.82 C 760.38 892.25 760.54 903.57 756.58 913.56 C 753.76 920.27 754.60 927.67 755.58 934.67 C 752.07 934.05 748.36 933.66 745.35 931.60 C 741.56 929.09 737.94 926.35 734.12 923.90 C 732.24 922.50 729.60 920.83 730.06 918.11 C 730.64 914.86 732.22 911.91 733.21 908.79 C 731.04 911.09 729.11 913.60 727.25 916.16 C 723.44 916.92 720.21 919.06 716.94 921.01 C 714.09 920.14 711.81 917.97 708.86 917.40 C 706.26 916.69 703.29 916.69 701.15 914.85 C 698.37 912.49 696.24 909.33 695.17 905.84 C 694.30 903.09 695.94 900.41 696.63 897.82 C 695.80 897.93 694.13 898.15 693.30 898.26 C 692.27 902.76 691.14 907.24 689.62 911.60 C 683.99 911.99 678.17 911.05 672.69 912.76 C 667.70 914.73 663.17 917.71 658.78 920.77 C 654.45 923.75 650.88 927.90 645.93 929.91 C 640.49 932.09 634.95 934.45 629.00 934.62 C 621.92 934.85 615.08 937.47 607.94 936.88 C 601.73 936.65 596.41 933.09 590.81 930.83 C 591.93 924.72 596.11 919.84 597.66 913.89 C 601.75 901.13 602.02 886.77 596.54 874.39 C 595.31 872.22 594.33 869.16 591.58 868.64 C 584.15 867.06 575.73 867.53 569.59 872.45 C 565.43 874.67 564.98 879.71 563.99 883.81 C 561.78 884.63 559.58 885.45 557.38 886.29 C 556.95 890.47 557.79 896.00 553.57 898.54 C 550.57 900.78 547.34 897.88 544.92 896.15 C 538.27 891.24 535.43 883.08 529.49 877.52 C 524.67 872.97 520.48 867.83 515.73 863.21 C 512.68 860.32 511.11 856.39 509.13 852.79 C 507.47 849.58 503.77 848.49 500.66 847.22 C 496.29 845.63 491.87 843.72 488.57 840.33 C 485.45 837.44 483.84 833.38 481.08 830.21 C 478.68 832.95 479.23 837.67 476.01 840.07 C 470.84 844.21 465.35 848.64 463.11 855.14 C 462.21 857.56 463.12 860.32 465.02 862.01 C 468.25 865.17 472.92 865.80 477.14 866.76 C 473.11 871.85 467.84 875.74 463.46 880.51 C 454.47 889.50 442.44 894.08 432.03 901.03 C 427.58 903.78 422.42 905.16 418.12 908.18 C 413.93 911.14 408.84 912.57 404.83 915.81 C 401.44 918.41 398.54 921.73 394.61 923.57 C 391.69 924.92 388.67 926.11 385.99 927.92 C 383.80 929.14 381.65 931.15 378.95 930.73 C 374.17 930.22 370.09 927.38 365.99 925.09 C 361.08 922.42 358.19 917.50 354.47 913.55 C 350.36 908.94 343.91 908.01 338.70 905.14 C 332.07 901.62 324.21 900.32 316.99 902.81 C 306.67 905.35 299.08 913.23 289.70 917.70 C 287.16 919.03 284.88 920.79 282.74 922.69 C 278.50 926.49 273.47 929.38 269.68 933.71 C 263.83 940.21 257.14 945.86 250.65 951.70 C 247.70 954.26 244.23 957.09 240.05 956.65 C 231.86 956.01 222.52 954.79 216.90 948.10 C 214.98 945.31 218.10 942.67 219.47 940.44 C 224.91 934.03 226.15 925.50 228.81 917.80 C 229.69 904.63 226.53 891.58 223.49 878.85 C 223.00 876.24 223.78 873.64 224.36 871.13 C 226.41 863.21 226.92 854.99 229.16 847.12 C 230.48 843.20 229.10 839.14 227.40 835.59 C 224.41 828.87 217.98 824.25 215.78 817.12 C 213.99 811.55 210.96 805.24 204.95 803.40 C 201.20 804.70 199.22 808.35 197.87 811.83 C 198.83 812.20 199.79 812.58 200.75 812.97 C 202.20 811.81 203.66 810.67 205.13 809.56 C 206.11 813.59 205.24 818.24 201.85 820.91 C 197.85 822.62 193.08 822.69 189.68 825.71 C 186.93 827.68 185.89 831.09 183.66 833.50 C 180.01 836.01 176.15 838.24 172.83 841.21 C 168.47 834.68 164.39 827.77 158.35 822.61 C 154.92 819.64 150.55 818.19 146.45 816.42 C 147.08 813.98 147.68 811.52 148.23 809.06 C 146.10 811.45 144.17 814.00 142.40 816.67 C 137.16 816.89 131.92 813.36 126.85 815.80 C 117.98 819.51 110.76 826.20 101.89 829.91 C 97.79 831.62 93.84 833.66 90.19 836.20 C 83.56 840.80 75.48 842.26 68.02 845.00 C 63.06 846.64 58.16 848.76 52.92 849.35 C 48.65 848.42 44.99 845.78 41.12 843.84 C 33.01 839.53 26.85 831.92 17.94 829.08 C 11.00 827.44 5.31 832.50 0.00 836.08 L 0.00 834.64 C 2.06 830.42 3.24 825.88 4.77 821.46 C 7.06 815.59 13.18 812.56 18.97 811.20 C 24.63 809.84 29.11 805.98 33.96 803.02 C 38.15 800.43 43.38 802.61 47.77 800.87 C 52.96 798.08 55.69 792.63 59.20 788.17 C 61.71 784.87 66.17 784.61 69.85 783.57 C 74.25 782.67 77.53 779.32 81.66 777.77 C 83.57 777.00 85.60 776.53 87.44 775.59 C 89.50 772.39 90.63 768.72 91.88 765.17 C 89.54 761.53 89.29 757.20 89.87 753.02 C 85.77 748.25 85.58 741.76 82.81 736.34 C 78.67 728.21 78.46 718.86 78.46 709.94 C 77.23 699.05 76.15 687.79 71.06 677.89 C 69.08 674.03 65.52 671.11 64.07 666.99 C 64.28 663.94 66.72 661.80 68.42 659.48 C 71.80 655.26 73.86 648.97 71.04 643.94 C 68.56 639.10 66.67 633.98 65.40 628.69 C 67.55 627.11 70.17 625.91 71.62 623.59 C 73.12 619.92 73.43 615.92 74.27 612.09 C 68.59 611.71 62.88 612.37 57.23 611.79 C 54.93 610.33 52.20 608.02 52.76 604.97 C 52.83 600.80 56.46 597.33 55.63 593.11 C 54.06 590.20 50.01 587.92 51.28 584.12 C 53.42 576.15 59.27 569.45 60.14 561.10 C 59.84 555.15 58.38 549.01 54.92 544.07 C 54.06 542.29 52.00 543.16 50.47 543.04 C 49.69 546.14 48.84 549.22 48.01 552.31 C 45.15 552.42 42.07 553.05 39.40 551.69 C 36.12 550.34 35.51 545.96 32.12 544.83 C 30.49 543.92 27.92 543.60 27.65 541.35 C 26.88 537.96 27.43 534.47 27.69 531.06 C 32.77 529.04 36.40 524.88 39.25 520.37 C 41.78 520.17 44.31 519.97 46.84 519.78 C 49.35 516.67 51.10 512.45 54.92 510.74 C 57.25 511.39 59.17 512.94 61.16 514.26 C 63.10 512.93 64.91 511.35 67.09 510.43 C 69.25 510.15 71.43 510.39 73.60 510.47 C 74.05 511.89 74.50 513.31 74.96 514.75 C 77.42 514.06 79.84 513.22 82.15 512.14 C 80.60 508.79 79.26 505.34 78.31 501.77 C 82.39 499.29 86.46 496.59 91.06 495.19 C 93.35 495.20 95.11 497.15 97.02 498.23 C 96.13 495.58 95.00 492.91 95.01 490.06 C 97.76 486.68 101.59 484.40 104.89 481.60 C 108.09 482.45 111.17 483.69 114.12 485.20 C 118.40 480.88 121.47 475.61 124.31 470.29 C 126.35 466.06 130.99 464.30 133.97 460.93 C 135.19 458.61 135.42 455.92 136.04 453.40 C 137.27 452.99 138.50 452.58 139.74 452.17 C 140.51 450.16 141.04 447.99 142.33 446.23 C 148.15 443.90 154.62 443.84 160.42 441.38 C 165.10 439.31 170.20 438.70 175.25 438.42 C 174.41 435.90 173.44 433.44 172.38 431.02 C 173.24 428.65 174.13 426.30 175.02 423.95 C 173.99 422.28 172.85 420.65 172.09 418.83 C 173.20 411.30 180.63 407.51 184.69 401.78 C 185.44 397.86 185.29 393.83 185.80 389.88 C 188.76 389.39 192.05 389.45 194.50 387.47 C 198.60 384.24 202.76 381.07 207.00 378.01 C 210.78 375.21 215.50 374.28 219.98 373.21 C 224.16 372.19 228.61 374.34 232.67 372.69 C 235.96 370.81 236.61 366.65 238.90 363.88 C 240.42 362.74 242.33 362.32 244.07 361.64 C 242.84 355.85 244.12 350.01 244.58 344.22 C 245.57 343.44 246.57 342.68 247.58 341.92 C 249.79 345.30 251.96 348.72 254.25 352.06 C 259.76 351.11 265.04 349.19 270.43 347.74 C 270.17 343.01 268.58 338.57 266.85 334.22 C 265.36 331.00 268.35 326.68 271.94 327.22 C 280.62 327.09 288.19 332.20 296.69 333.25 C 295.78 330.55 294.85 327.85 293.94 325.16 C 297.13 319.30 299.65 312.48 305.49 308.70 C 308.66 306.66 312.50 308.89 314.98 311.06 C 321.56 317.06 323.85 326.00 327.93 333.63 C 329.75 331.71 331.52 329.76 333.26 327.78 C 334.19 328.72 335.12 329.65 336.05 330.59 C 339.46 329.46 342.94 328.55 346.29 327.25 C 348.92 326.33 349.56 323.06 351.82 321.70 C 354.67 321.42 357.53 321.65 360.38 321.72 C 360.66 325.63 360.93 329.55 361.35 333.46 C 363.28 330.87 364.93 328.09 366.37 325.20 C 369.52 325.42 372.66 325.71 375.81 326.02 C 377.25 325.09 378.65 324.06 380.23 323.37 C 382.32 323.29 384.28 324.20 386.27 324.75 C 388.08 322.72 389.70 320.32 392.29 319.24 C 396.28 317.56 400.69 317.44 404.94 317.07 C 406.42 314.86 407.71 312.47 409.67 310.64 C 412.15 309.76 414.85 309.93 417.45 309.72 C 417.85 306.02 416.93 301.04 420.57 298.72 C 425.57 296.27 430.87 299.91 436.00 299.34 C 442.27 297.55 446.69 292.34 452.41 289.47 C 455.94 287.42 460.04 286.96 463.95 286.11 C 466.95 285.48 468.27 282.11 471.04 281.06 C 476.63 279.94 482.35 282.87 487.87 281.08 C 490.90 280.06 494.11 278.74 495.98 275.99 C 497.30 274.47 498.25 272.45 500.12 271.52 C 502.21 270.84 503.61 272.85 505.21 273.79 C 507.45 275.56 510.70 275.36 512.89 277.16 C 514.40 279.54 514.90 282.46 516.69 284.70 C 517.81 281.10 518.30 276.97 521.52 274.51 C 525.87 270.87 524.13 264.78 524.26 259.88 C 520.63 257.36 517.15 254.57 514.48 251.02 C 517.23 244.65 521.07 238.84 525.34 233.39 C 527.40 230.87 529.17 227.68 532.48 226.67 C 536.81 225.17 541.49 224.08 544.99 220.92 C 549.86 217.19 550.84 210.31 556.30 207.14 C 555.20 205.48 554.13 203.80 553.04 202.14 C 556.27 199.02 559.03 195.47 561.54 191.75 C 559.83 189.65 558.08 187.59 556.30 185.56 C 558.25 181.58 560.69 177.52 560.66 172.95 C 559.42 169.18 555.63 166.38 556.04 162.07 C 555.30 157.13 558.69 152.02 556.90 147.34 C 551.30 141.54 541.85 141.69 536.26 135.71 C 532.91 131.85 530.42 127.33 526.87 123.64 C 529.18 117.27 536.18 115.49 542.02 113.86 C 547.52 112.31 552.70 115.74 558.12 116.08 C 561.92 115.58 565.20 113.34 568.43 111.41 C 573.14 108.58 576.17 103.87 580.22 100.27 C 584.99 95.97 588.36 90.34 593.32 86.23 C 597.37 82.85 602.92 81.57 606.39 77.46 C 609.36 73.57 609.14 68.41 609.64 63.78 C 615.61 60.98 622.02 58.54 626.74 53.73 C 630.04 50.30 632.38 46.10 635.26 42.32 C 638.52 38.19 639.58 32.19 644.59 29.60 C 647.96 27.05 651.71 30.03 655.14 30.87 C 663.19 31.91 671.05 27.41 679.09 29.29 C 686.10 28.93 690.87 22.64 697.13 20.30 C 702.97 18.41 707.22 23.42 711.22 26.73 C 714.64 29.53 715.84 33.94 717.50 37.84 C 716.06 40.02 714.63 42.21 713.19 44.38 C 716.94 46.72 720.18 49.88 721.99 53.96 C 722.82 55.05 723.11 57.31 724.90 57.12 C 733.51 57.15 742.38 52.28 750.77 56.18 C 755.18 58.97 759.24 62.33 764.13 64.31 C 765.26 63.58 766.39 62.84 767.53 62.10 C 767.31 60.01 767.09 57.92 766.87 55.83 C 769.95 53.21 772.52 49.89 776.05 47.85 C 780.03 47.42 783.96 48.54 787.87 49.10 C 788.93 44.87 789.84 40.60 790.48 36.28 C 793.74 36.11 797.21 36.52 800.29 35.15 C 805.37 32.47 809.21 28.02 812.55 23.44 C 815.81 18.97 821.20 17.04 825.85 14.40 C 826.15 15.22 826.75 16.86 827.05 17.67 C 829.02 16.43 830.97 15.13 833.03 14.02 C 836.57 11.97 840.81 11.95 844.57 10.45 C 846.27 9.96 847.95 8.97 849.78 9.12 C 850.59 9.85 851.34 10.64 852.03 11.50 C 853.54 13.80 855.01 16.11 856.65 18.32 C 857.08 16.20 857.52 14.08 858.10 11.99 C 860.81 7.54 864.87 4.16 867.98 0.00 M 868.49 5.61 C 865.49 7.81 862.34 10.40 861.08 14.02 C 860.46 17.59 862.41 20.92 863.20 24.31 C 856.90 22.93 852.78 17.61 848.68 13.09 C 844.90 14.65 840.85 15.17 836.89 15.97 C 833.41 16.57 831.35 19.70 829.12 22.10 C 825.26 22.17 821.17 21.21 817.47 22.59 C 813.12 26.07 811.77 31.99 807.99 35.95 C 803.55 38.35 798.45 39.19 793.46 39.30 C 793.13 43.30 793.58 48.15 790.04 50.93 C 787.28 53.95 783.26 51.31 779.95 51.13 C 776.99 51.55 774.24 53.22 772.42 55.57 C 770.13 58.28 771.98 62.70 769.05 65.04 C 766.04 68.07 760.85 68.00 757.57 65.46 C 754.84 63.58 752.81 60.74 749.78 59.32 C 743.87 58.05 737.76 58.82 731.95 60.19 C 728.09 61.08 723.66 60.94 720.35 58.56 C 718.46 56.28 718.08 53.11 716.17 50.85 C 714.12 49.11 711.39 48.53 708.95 47.55 C 710.02 43.94 711.73 40.57 713.59 37.32 C 710.90 31.57 706.95 24.66 699.95 24.00 C 692.84 25.30 687.47 30.64 680.92 33.27 C 678.22 33.15 675.52 31.78 672.86 32.78 C 669.01 33.90 665.01 35.29 660.97 34.26 C 659.69 35.21 658.68 36.72 657.10 37.12 C 654.28 35.58 651.92 33.29 648.94 32.05 C 646.34 32.09 643.36 33.55 642.34 36.09 C 641.01 39.10 640.18 42.52 637.50 44.69 C 634.84 46.73 634.70 50.28 633.25 53.04 C 630.49 55.37 627.74 57.68 625.28 60.32 C 621.56 62.59 616.93 63.56 613.96 66.98 C 610.90 70.96 612.11 76.86 608.49 80.51 C 603.80 84.99 597.05 86.68 592.77 91.67 C 582.90 102.58 573.32 115.01 558.96 120.12 C 553.29 120.97 548.55 115.62 542.84 117.25 C 538.84 118.45 534.94 120.04 531.21 121.91 C 533.13 126.00 535.34 130.12 538.65 133.28 C 544.50 138.78 554.02 138.38 559.05 144.95 C 562.31 149.86 559.14 155.71 559.29 161.04 C 559.16 165.28 561.61 168.93 564.08 172.15 C 563.95 176.60 563.37 181.17 561.06 185.07 C 562.50 186.04 563.94 187.00 565.40 187.97 C 564.54 192.37 562.27 196.27 560.46 200.31 C 559.33 202.52 560.22 204.98 560.57 207.26 C 556.23 212.66 552.20 218.34 547.45 223.39 C 542.43 229.23 532.71 227.52 528.60 234.48 C 523.87 239.22 521.61 245.51 518.97 251.49 C 521.23 253.44 523.40 255.55 525.98 257.11 C 533.10 251.21 540.02 244.98 546.48 238.35 C 550.48 234.60 555.46 231.51 561.01 230.95 C 563.81 231.13 566.04 233.16 568.43 234.45 C 573.39 237.75 579.17 239.31 584.68 241.39 C 590.61 243.58 595.63 247.57 600.30 251.73 C 605.96 256.74 609.85 263.64 616.44 267.61 C 619.94 269.63 622.70 272.88 626.51 274.35 C 635.63 275.64 644.83 274.32 653.91 273.39 C 661.06 274.35 666.40 279.89 671.38 284.64 C 675.27 288.10 677.07 293.47 681.58 296.28 C 689.78 300.86 692.76 310.43 696.66 318.37 C 699.60 323.36 695.38 328.89 697.19 334.10 C 699.63 342.65 704.52 350.79 711.99 355.85 C 716.16 358.59 720.53 361.02 724.85 363.52 C 727.27 360.37 729.67 357.16 731.44 353.57 C 733.13 350.35 734.67 346.72 737.98 344.82 C 742.81 341.84 747.86 339.03 753.40 337.63 C 756.51 336.81 759.80 336.24 762.50 334.35 C 766.95 331.18 771.59 328.27 775.79 324.75 C 779.19 321.70 784.02 321.86 788.10 320.30 C 796.93 317.05 803.84 310.44 811.05 304.66 C 822.24 296.06 833.85 286.67 848.21 284.35 C 853.80 283.67 859.25 281.31 863.27 277.30 C 865.40 275.13 866.12 272.07 867.37 269.38 C 868.80 265.72 871.42 262.64 872.64 258.89 C 873.73 255.47 874.33 251.92 875.38 248.49 C 878.56 238.14 880.15 227.41 882.24 216.81 C 878.70 217.10 875.25 217.91 871.79 218.65 C 870.45 219.07 869.23 218.83 868.13 217.93 C 867.36 215.60 868.21 213.23 868.91 211.00 C 867.98 209.36 866.78 207.82 866.35 205.96 C 866.39 203.57 867.03 201.22 866.92 198.82 C 865.97 194.81 863.60 191.31 862.66 187.29 C 860.98 180.07 861.03 172.54 862.52 165.29 C 858.93 164.11 855.88 161.80 853.51 158.89 C 851.57 159.49 849.65 160.16 847.76 160.86 C 845.35 158.71 842.46 156.43 841.99 153.03 C 840.85 146.83 845.14 141.50 845.13 135.37 C 848.18 132.33 849.69 128.40 850.06 124.15 C 852.71 122.15 856.10 120.68 857.44 117.41 C 860.93 110.00 865.79 102.55 873.59 99.18 C 877.87 102.16 883.21 100.83 888.06 100.99 C 890.70 101.02 892.88 102.76 895.10 103.99 C 901.88 99.00 911.39 95.02 913.21 85.92 C 914.35 81.64 910.12 79.06 907.70 76.31 C 904.34 73.21 902.95 68.78 901.12 64.74 C 899.66 61.47 896.73 59.26 894.54 56.52 C 892.89 54.56 892.08 52.09 891.08 49.78 C 889.22 45.32 886.83 41.08 885.23 36.51 C 883.12 30.88 884.30 24.72 883.02 18.92 C 882.13 13.50 877.72 9.57 873.38 6.66 C 871.89 5.97 870.08 4.27 868.49 5.61 M 934.37 191.32 C 931.13 193.67 926.95 193.78 923.44 195.51 C 919.39 197.98 918.24 202.94 915.29 206.37 C 911.45 209.07 906.56 209.40 902.40 211.43 C 899.05 212.83 897.56 216.41 895.26 218.97 C 892.50 218.46 889.77 217.88 887.12 217.01 C 883.34 227.01 882.87 237.88 879.23 247.92 C 877.10 253.67 876.96 260.19 873.34 265.33 C 870.82 268.82 869.87 273.08 867.84 276.82 C 864.69 281.16 859.98 284.16 855.11 286.26 C 850.30 288.38 844.96 288.73 840.08 290.60 C 837.08 291.71 834.23 293.17 831.38 294.59 C 816.30 302.11 805.85 316.43 790.42 323.37 C 786.22 325.35 781.18 325.33 777.46 328.34 C 772.88 331.96 767.76 334.79 762.99 338.14 C 758.22 341.50 752.02 341.33 747.00 344.19 C 743.31 346.21 738.66 347.54 736.68 351.60 C 734.59 355.61 732.26 359.57 728.94 362.71 C 730.79 364.63 732.86 366.65 735.64 367.07 C 743.18 368.91 750.43 364.92 757.95 365.02 C 762.49 365.06 767.08 364.77 771.59 365.49 C 774.84 366.04 776.65 369.10 778.34 371.62 C 773.48 376.19 769.50 381.76 767.09 388.00 C 765.75 391.36 765.45 395.10 763.53 398.24 C 764.36 401.33 765.01 404.48 765.34 407.68 C 766.38 407.97 767.43 408.26 768.50 408.56 C 769.85 409.74 771.40 410.74 772.59 412.11 C 773.12 413.78 773.81 415.41 774.83 416.86 C 778.58 417.44 782.24 418.79 786.07 418.75 C 790.71 418.14 795.31 417.01 800.03 417.13 C 804.01 417.23 808.60 417.29 811.42 420.59 C 815.42 424.04 815.92 429.83 814.56 434.64 C 813.34 438.43 810.84 441.94 811.01 446.08 C 811.03 454.53 810.89 462.98 811.12 471.43 C 818.71 471.31 826.39 471.97 833.87 470.21 C 841.20 469.58 848.57 469.23 855.87 468.19 C 860.60 467.39 865.68 469.18 870.15 466.97 C 873.27 465.60 876.40 463.74 879.96 463.98 C 892.27 464.12 904.61 463.78 916.92 464.15 C 923.49 465.60 930.21 466.82 936.98 466.09 C 941.75 465.96 946.21 463.59 951.03 463.94 C 955.11 464.04 959.39 465.97 961.53 469.58 C 964.14 473.73 964.46 478.86 966.94 483.07 C 968.96 485.31 972.12 486.22 975.04 486.60 C 978.34 486.26 981.06 484.15 984.09 483.00 C 986.48 483.02 988.47 484.84 990.88 484.95 C 999.43 480.22 1008.14 475.66 1017.31 472.23 C 1021.37 470.82 1026.65 472.32 1029.78 468.76 C 1032.79 465.42 1036.11 462.29 1038.59 458.52 C 1040.94 453.37 1040.15 447.21 1043.17 442.30 C 1046.87 436.77 1052.28 432.75 1056.91 428.07 C 1055.83 424.77 1052.40 422.56 1050.00 420.06 C 1047.51 421.72 1045.02 423.39 1042.55 425.07 C 1039.86 421.69 1038.24 417.67 1036.06 413.99 C 1033.37 409.71 1027.81 409.49 1023.82 407.16 C 1020.01 401.96 1019.76 394.54 1014.52 390.34 C 1009.39 386.76 1003.37 384.30 999.19 379.50 C 995.99 375.83 995.64 370.39 992.02 367.04 C 985.16 361.61 976.56 359.07 968.10 357.44 C 964.41 357.01 961.66 353.97 960.55 350.59 C 958.08 343.64 959.31 336.19 958.95 328.99 C 958.87 325.94 957.65 323.09 957.14 320.11 C 956.59 316.17 957.39 312.17 956.71 308.24 C 955.56 303.62 951.65 300.52 949.47 296.44 C 947.80 293.25 947.79 289.39 945.73 286.40 C 941.78 281.63 936.39 277.85 933.70 272.15 C 934.89 269.44 937.23 266.99 936.94 263.84 C 936.45 260.76 933.15 259.41 931.84 256.86 C 931.12 251.21 930.08 245.57 929.87 239.87 C 931.65 238.95 933.84 238.53 935.27 237.08 C 935.31 233.60 933.36 230.62 931.57 227.82 C 933.66 224.08 935.95 220.47 938.26 216.87 C 937.86 214.61 936.82 212.36 937.14 210.04 C 938.98 205.18 944.51 203.41 947.38 199.36 C 949.05 195.05 946.11 190.76 944.64 186.81 C 940.94 187.59 937.49 189.21 934.37 191.32 M 545.22 244.15 C 540.33 250.28 532.59 253.64 528.52 260.45 C 527.35 264.28 528.19 268.44 528.09 272.40 C 527.21 271.50 526.35 270.61 525.48 269.73 C 525.33 271.71 525.62 273.82 524.67 275.66 C 522.15 281.14 518.57 286.02 515.28 291.04 C 511.99 295.89 512.86 302.16 510.35 307.33 C 508.46 311.43 506.48 315.48 504.63 319.60 C 501.95 325.76 496.94 330.39 492.77 335.51 C 489.87 339.07 485.77 341.32 482.50 344.47 C 479.40 347.84 477.42 352.05 474.45 355.52 C 472.33 358.33 469.12 361.08 469.77 364.98 C 469.90 369.29 473.50 372.06 476.51 374.59 C 482.33 379.44 486.50 385.86 491.83 391.19 C 494.51 394.22 497.49 397.26 498.84 401.17 C 500.95 409.12 497.61 417.50 500.49 425.39 C 501.18 430.91 502.77 436.42 502.14 442.03 C 503.18 448.49 505.17 454.88 508.51 460.55 C 513.76 469.68 521.64 476.90 527.21 485.79 C 531.71 493.04 537.81 499.15 544.23 504.70 C 547.65 507.71 551.49 510.34 554.26 514.03 C 560.11 521.69 564.56 530.36 567.82 539.42 C 574.50 538.33 580.94 536.03 586.98 532.99 C 591.55 530.81 594.27 526.00 598.99 524.09 C 604.30 523.11 609.71 524.31 615.07 524.00 C 619.10 521.04 622.45 517.22 626.82 514.73 C 633.06 510.92 640.05 508.64 646.58 505.43 C 651.14 503.15 653.75 498.57 656.54 494.53 C 658.91 490.85 661.91 487.41 663.06 483.10 C 664.93 475.59 665.81 467.69 664.19 460.06 C 662.61 452.34 666.07 444.80 665.26 437.09 C 664.64 429.31 662.39 421.76 661.86 413.98 C 661.51 409.61 661.35 405.23 661.14 400.85 C 661.01 399.94 661.18 398.58 659.99 398.31 C 656.81 396.68 653.58 395.16 650.26 393.85 C 644.80 391.71 638.73 391.42 633.53 388.61 C 626.31 384.40 619.47 379.32 614.27 372.71 C 609.47 366.77 601.51 365.61 595.34 361.69 C 592.69 359.94 589.71 358.47 587.67 356.01 C 588.98 353.06 590.89 350.42 592.19 347.45 C 594.41 342.39 595.23 336.83 597.72 331.87 C 600.41 326.55 602.14 320.83 603.97 315.17 C 607.99 302.96 615.39 292.28 620.45 280.53 C 621.01 278.81 621.98 276.96 621.49 275.13 C 619.66 272.96 616.89 271.89 614.62 270.28 C 609.57 267.15 606.11 262.23 602.11 257.97 C 595.09 250.39 585.92 244.92 576.03 242.03 C 570.87 240.61 566.18 237.88 562.10 234.46 C 555.51 235.63 549.44 238.89 545.22 244.15 M 496.69 282.76 C 491.17 283.82 485.62 285.33 479.96 284.89 C 477.66 284.83 475.31 284.46 473.06 285.04 C 470.48 286.41 468.45 288.65 465.77 289.82 C 461.66 291.34 457.09 291.28 453.13 293.25 C 447.96 295.70 444.52 300.98 438.88 302.56 C 433.04 303.85 427.09 302.51 421.29 301.71 C 420.79 305.24 422.14 309.52 419.69 312.49 C 416.20 313.94 412.23 314.57 409.44 317.34 C 406.47 320.46 402.05 320.93 398.07 321.81 C 393.97 322.62 390.80 325.51 387.67 328.06 C 384.84 327.75 381.85 326.97 379.15 328.27 C 375.40 329.91 371.27 329.52 367.31 329.99 C 366.48 332.10 365.64 334.20 364.83 336.31 C 363.18 336.22 361.54 336.13 359.91 336.06 C 357.02 333.16 356.92 328.89 356.17 325.11 C 352.95 326.38 350.08 328.31 347.29 330.31 C 343.57 333.10 338.72 333.12 334.55 334.81 C 332.34 335.73 330.23 336.85 328.07 337.86 C 321.45 332.04 320.45 322.65 315.12 315.94 C 313.08 313.38 309.69 310.83 306.29 312.33 C 300.98 315.64 301.44 322.74 298.59 327.71 C 299.38 330.44 300.11 333.19 300.75 335.96 C 296.75 336.47 292.57 336.77 288.74 335.22 C 282.68 332.96 276.30 331.78 269.88 331.20 C 272.31 339.35 274.57 347.57 277.53 355.55 C 279.08 359.88 281.46 363.91 282.52 368.41 C 283.59 373.20 284.10 378.11 284.03 383.02 C 283.97 392.81 287.24 402.18 288.06 411.88 C 288.67 419.14 291.54 425.93 294.46 432.52 C 295.88 435.48 297.49 439.05 301.02 439.89 C 306.68 440.53 312.22 438.68 317.84 438.34 C 330.69 437.48 343.23 434.44 355.91 432.39 C 360.81 431.70 365.28 429.45 370.05 428.27 C 374.65 427.14 379.32 428.49 383.95 428.66 C 388.56 428.90 393.57 428.54 397.56 431.30 C 408.53 438.59 416.80 449.08 424.77 459.39 C 429.38 465.53 433.74 472.23 435.00 479.95 C 437.10 491.61 438.59 503.78 444.80 514.14 C 451.53 524.43 460.56 532.91 469.46 541.29 C 471.82 543.51 475.14 543.86 478.02 545.07 C 480.96 546.23 482.64 549.08 484.94 551.08 C 489.32 555.07 495.01 558.00 497.66 563.57 C 502.00 572.56 505.11 582.20 506.33 592.14 C 506.95 595.67 507.15 599.52 509.34 602.52 C 513.59 607.94 520.43 610.99 523.67 617.28 C 527.70 625.22 526.22 634.79 522.61 642.60 C 519.64 648.79 518.18 655.86 513.29 660.96 C 508.45 666.00 506.49 672.88 502.70 678.61 C 501.46 680.90 499.47 683.35 500.29 686.13 C 502.15 693.63 505.75 700.58 509.94 707.03 C 512.36 710.88 514.78 715.31 513.90 720.05 C 512.42 726.88 508.46 732.84 504.54 738.51 C 500.00 745.05 492.53 749.40 489.56 757.04 C 487.48 763.97 490.16 771.00 490.86 777.93 C 491.54 785.41 493.32 792.73 494.37 800.16 C 495.27 806.69 499.03 812.24 501.70 818.12 C 506.17 827.63 509.19 837.71 512.39 847.69 C 513.49 851.06 514.44 854.57 516.54 857.50 C 519.96 862.34 524.68 866.05 528.51 870.54 C 534.60 877.17 539.05 885.16 545.56 891.42 C 548.84 888.30 552.52 885.68 556.34 883.28 C 562.22 879.90 562.09 871.24 568.53 868.42 C 573.28 866.81 578.35 866.28 582.99 864.27 C 587.93 865.25 593.05 865.26 597.90 866.81 C 599.39 861.21 598.40 855.47 597.58 849.86 C 596.62 843.85 598.86 837.96 598.88 831.98 C 598.06 824.20 595.16 816.66 590.77 810.21 C 586.40 804.50 582.20 798.24 581.43 790.90 C 580.56 786.61 583.65 783.10 585.71 779.70 C 589.65 773.75 590.77 766.53 594.03 760.26 C 596.82 754.73 600.09 749.47 602.90 743.95 C 606.09 737.61 612.53 733.14 614.09 725.95 C 616.33 716.61 619.74 706.71 616.69 697.15 C 614.39 689.61 613.78 681.39 609.28 674.69 C 609.75 673.44 610.21 672.19 610.69 670.96 C 609.40 668.96 607.96 667.02 607.09 664.79 C 606.47 661.10 608.47 657.67 608.84 654.06 C 609.54 647.39 609.11 640.62 607.77 634.06 C 607.40 632.13 605.91 630.71 604.65 629.34 C 601.81 626.59 599.14 623.66 596.01 621.25 C 592.21 618.62 591.68 613.68 590.47 609.59 C 589.34 604.52 586.30 600.21 584.39 595.44 C 582.94 592.15 581.50 588.54 578.48 586.38 C 568.32 580.61 562.01 569.46 560.21 558.13 C 558.65 550.48 564.65 543.52 562.76 535.88 C 560.97 529.26 556.80 523.68 553.11 518.02 C 549.56 512.48 543.39 509.65 538.72 505.25 C 535.29 502.03 531.91 498.72 528.94 495.07 C 524.66 489.81 522.32 483.24 517.71 478.24 C 513.28 473.25 508.48 468.47 505.36 462.50 C 499.60 452.79 496.80 441.38 497.73 430.11 C 498.62 421.27 496.88 412.50 495.16 403.88 C 494.45 399.92 491.54 396.96 489.11 393.96 C 484.46 388.57 480.55 382.37 474.53 378.36 C 470.06 375.32 466.13 370.68 465.95 365.05 C 465.68 360.76 468.65 357.28 471.07 354.06 C 474.83 349.51 477.06 343.68 481.93 340.08 C 495.75 329.58 505.75 314.10 509.29 297.08 C 510.32 292.37 513.92 286.98 510.71 282.39 C 507.36 279.75 503.05 278.37 500.37 274.86 C 499.12 277.48 497.87 280.11 496.69 282.76 M 625.47 278.41 C 623.29 282.05 621.44 285.87 619.84 289.80 C 617.31 296.11 612.92 301.48 610.66 307.91 C 606.77 316.82 605.28 326.67 600.06 335.01 C 597.24 339.07 598.70 344.56 595.61 348.46 C 593.96 350.71 592.56 353.12 591.60 355.74 C 596.04 358.28 600.66 360.46 605.38 362.43 C 616.36 367.17 622.39 378.40 632.65 384.22 C 638.97 388.60 646.83 389.06 653.82 391.83 C 658.12 393.42 662.39 395.13 666.63 396.90 C 665.10 407.59 665.92 418.42 667.95 428.98 C 669.54 436.45 669.71 444.21 667.86 451.65 C 666.53 456.09 668.16 460.52 668.96 464.88 C 670.09 470.68 668.21 476.43 667.29 482.11 C 666.50 489.52 660.38 494.47 656.67 500.47 C 647.88 513.85 628.56 512.57 619.07 525.13 C 621.97 525.83 626.24 524.97 627.72 528.25 C 630.83 536.65 632.56 545.49 634.94 554.11 C 636.68 559.93 636.06 566.13 637.58 572.01 C 639.89 581.16 634.56 590.25 636.82 599.40 C 638.10 606.19 642.91 611.58 644.56 618.24 C 645.61 622.38 646.85 626.47 648.61 630.37 C 650.72 635.29 651.42 641.40 656.13 644.71 C 659.38 647.52 663.92 647.32 667.96 647.21 C 675.29 646.85 682.22 649.66 689.08 651.84 C 693.59 653.25 696.02 657.91 700.44 659.46 C 709.22 662.51 715.14 670.39 719.92 677.97 C 726.01 686.78 731.74 695.95 735.59 705.98 C 737.85 712.07 736.82 718.67 737.00 725.02 C 736.65 731.10 739.27 736.87 739.03 742.95 C 738.77 750.34 739.68 757.87 737.90 765.13 C 736.50 771.58 733.60 777.58 732.07 783.99 C 729.99 794.51 726.96 804.91 722.48 814.67 C 721.59 818.63 720.31 822.50 718.27 826.03 C 720.50 829.34 723.66 831.80 726.41 834.64 C 729.15 837.41 730.46 841.16 731.68 844.79 C 726.91 850.07 722.51 855.72 719.18 862.04 C 716.36 867.34 712.53 872.09 707.52 875.45 C 702.11 879.10 702.79 886.27 702.17 891.95 C 702.20 896.66 698.92 900.51 698.42 905.09 C 700.39 911.77 708.10 913.19 713.76 915.40 C 717.62 917.17 721.42 914.54 724.84 912.96 C 728.26 911.42 729.37 907.49 731.94 905.04 C 734.07 903.21 736.86 902.49 739.47 901.61 C 739.21 907.25 737.00 913.04 733.01 917.11 C 738.05 922.20 743.47 927.74 750.78 929.24 C 750.66 922.35 752.25 915.60 754.28 909.06 C 756.74 901.16 757.48 892.74 761.05 885.20 C 763.29 880.28 766.63 876.00 769.34 871.36 C 771.23 868.14 772.31 864.51 774.32 861.35 C 775.81 858.73 777.77 856.16 777.95 853.05 C 778.32 848.69 779.03 844.38 779.70 840.06 C 780.29 836.57 779.67 832.76 781.47 829.56 C 783.14 826.57 785.49 823.97 786.66 820.71 C 788.55 815.74 790.07 810.61 792.74 805.97 C 795.90 800.49 797.60 793.94 802.42 789.58 C 806.72 786.97 812.55 787.91 816.41 784.35 C 819.57 781.68 816.34 777.49 816.83 774.09 C 817.96 773.04 819.07 771.97 820.30 771.03 C 822.25 770.84 824.13 771.64 826.08 771.73 C 833.10 769.69 839.01 763.69 840.16 756.35 C 829.84 754.63 819.87 750.08 813.01 741.99 C 809.80 737.74 805.14 735.16 800.95 732.04 C 800.25 723.37 801.01 714.66 800.68 705.97 C 800.73 691.86 800.99 677.12 807.09 664.08 C 809.91 657.90 813.95 652.10 814.83 645.20 C 815.84 637.54 816.42 628.87 811.78 622.21 C 807.74 616.23 802.31 611.28 798.72 604.98 C 793.49 595.92 791.84 585.41 790.32 575.22 C 788.93 568.91 793.44 563.26 793.03 556.99 C 793.27 552.73 791.25 548.87 790.04 544.91 C 787.66 537.75 789.31 529.63 793.54 523.50 C 795.26 520.93 798.08 518.78 798.13 515.41 C 798.40 509.22 800.08 503.22 800.51 497.04 C 801.01 490.46 804.65 484.67 805.51 478.15 C 808.34 466.59 806.15 454.63 807.36 442.93 C 807.72 438.62 810.94 435.23 811.33 430.95 C 811.46 427.78 810.83 423.87 807.71 422.29 C 800.53 421.00 793.13 421.33 786.03 422.91 C 782.10 422.50 778.27 421.21 774.35 420.66 C 770.33 417.30 768.00 412.33 763.74 409.20 C 760.44 406.76 761.06 402.45 760.80 398.88 C 760.13 393.13 764.19 388.49 766.15 383.42 C 767.96 378.46 771.63 374.57 774.27 370.07 C 768.25 368.73 762.06 368.94 755.95 369.09 C 750.85 369.24 746.04 371.30 740.95 371.48 C 736.10 371.36 731.66 369.17 727.03 367.99 C 718.18 365.59 711.15 359.40 704.12 353.85 C 699.61 350.30 697.69 344.72 695.42 339.68 C 693.99 336.32 692.08 332.77 692.88 329.00 C 693.34 325.98 694.85 322.77 693.30 319.82 C 690.05 312.28 686.85 303.93 679.60 299.33 C 675.31 296.49 674.09 290.98 670.04 287.92 C 667.07 285.65 664.40 283.04 661.49 280.71 C 658.47 278.49 654.68 276.14 650.80 277.48 C 642.52 279.76 633.91 278.30 625.47 278.41 M 248.47 350.73 C 248.00 352.77 247.16 354.78 247.16 356.90 C 248.58 360.31 250.30 363.60 251.27 367.19 C 247.88 368.14 244.43 367.38 241.24 366.13 C 239.34 370.01 237.68 374.54 233.65 376.72 C 229.34 379.05 224.47 375.86 220.03 377.55 C 215.12 379.07 210.00 380.52 205.97 383.85 C 200.67 388.18 194.64 391.79 187.96 393.49 C 188.53 396.70 189.25 399.89 190.21 403.01 C 186.96 408.88 179.76 410.74 176.18 416.27 C 175.20 419.39 178.69 421.81 178.24 424.92 C 177.88 426.94 177.04 428.84 176.34 430.76 C 177.32 432.81 178.20 434.90 179.02 437.03 C 177.93 439.72 175.93 442.15 172.92 442.68 C 163.30 444.36 154.36 448.82 144.55 449.67 C 144.32 451.39 144.11 453.11 143.90 454.84 C 142.15 455.96 139.77 456.63 139.07 458.81 C 137.34 463.08 134.01 466.50 129.91 468.54 C 134.17 477.00 143.15 481.54 151.87 484.07 C 156.95 485.39 161.67 487.89 166.85 488.85 C 173.26 489.41 179.73 488.60 186.15 489.16 C 191.29 490.01 195.25 493.70 199.54 496.36 C 204.70 499.83 210.87 501.39 216.03 504.88 C 221.60 508.64 227.56 511.81 233.00 515.79 C 236.23 518.13 237.98 521.83 239.64 525.34 C 242.28 530.90 243.79 536.97 244.21 543.11 C 244.63 548.30 245.01 553.73 247.70 558.34 C 249.45 561.49 252.74 563.32 254.85 566.18 C 255.82 568.71 255.84 571.44 256.20 574.10 C 256.64 578.24 258.28 582.12 259.32 586.13 C 261.27 593.20 263.08 600.53 267.44 606.57 C 271.96 612.36 270.79 620.24 269.97 627.02 C 268.82 632.52 268.24 638.10 267.56 643.68 C 267.14 647.39 263.80 650.15 264.16 654.02 C 264.14 662.05 264.34 670.08 264.06 678.11 C 265.69 686.76 273.77 692.52 275.46 701.17 C 276.27 704.34 275.11 707.52 274.48 710.61 C 272.70 718.73 272.81 727.41 268.98 734.98 C 266.96 738.70 266.43 742.93 265.86 747.06 C 265.35 750.83 263.76 754.36 263.25 758.14 C 262.84 761.72 263.11 765.34 263.05 768.94 C 263.18 774.11 260.09 778.99 261.48 784.21 C 262.14 793.53 270.73 799.45 272.34 808.48 C 274.14 813.05 271.45 817.42 269.79 821.56 C 267.32 827.63 269.16 834.35 267.50 840.58 C 265.62 847.68 263.52 854.72 261.62 861.81 C 260.15 869.82 261.68 878.03 260.86 886.09 C 260.17 890.14 258.36 893.89 257.36 897.86 C 256.50 901.31 255.65 904.80 254.04 908.00 C 249.50 917.08 247.30 927.11 245.79 937.09 C 244.79 942.32 242.33 947.12 240.06 951.90 C 243.27 951.09 246.99 951.02 249.48 948.53 C 253.06 945.04 255.74 940.64 259.92 937.76 C 263.62 935.25 266.26 931.60 269.64 928.73 C 276.40 923.48 282.92 917.91 290.05 913.14 C 299.14 906.02 309.85 901.31 320.75 897.70 C 325.59 896.03 330.77 897.73 335.26 899.67 C 340.93 902.38 346.81 904.65 352.44 907.44 C 358.09 910.16 360.91 916.20 365.96 919.70 C 370.07 922.60 374.48 925.13 379.11 927.11 C 383.21 924.82 387.14 922.22 391.52 920.47 C 397.26 918.29 400.58 912.65 406.05 910.05 C 411.45 907.30 416.83 904.53 422.13 901.60 C 421.83 900.35 421.55 899.13 421.25 897.92 C 418.64 889.97 422.32 881.96 423.63 874.14 C 424.69 870.05 423.08 866.03 422.82 861.96 C 422.35 857.18 423.09 852.32 422.08 847.59 C 421.25 843.14 419.38 838.56 420.85 834.04 C 423.10 826.61 427.33 820.00 431.58 813.58 C 434.87 808.70 435.22 802.66 435.89 797.00 C 436.73 791.02 430.89 787.42 427.40 783.55 C 421.59 776.90 412.78 774.38 406.15 768.78 C 401.91 765.01 395.88 765.46 390.97 763.12 C 383.21 759.63 375.29 755.86 369.25 749.72 C 364.83 744.55 362.95 737.84 360.21 731.74 C 357.22 723.31 350.82 716.66 347.60 708.36 C 344.79 698.39 348.07 688.11 347.93 678.01 C 348.09 670.55 345.21 663.23 340.58 657.47 C 335.65 652.30 328.97 649.17 324.16 643.86 C 320.11 639.71 317.89 634.21 316.14 628.78 C 314.02 622.52 317.85 615.92 315.49 609.67 C 312.86 602.89 316.26 595.76 314.85 588.82 C 313.75 583.77 311.95 578.90 310.71 573.88 C 309.87 570.88 309.47 567.68 307.75 565.02 C 302.12 555.90 296.01 547.09 289.67 538.45 C 286.15 534.00 285.97 528.13 284.31 522.92 C 281.88 514.58 280.61 505.48 283.33 497.06 C 284.76 492.09 283.34 486.85 284.44 481.83 C 285.94 474.22 287.13 466.55 288.35 458.89 C 289.38 452.67 293.23 447.27 293.82 440.94 C 291.78 433.26 287.81 426.24 285.24 418.73 C 283.68 413.97 284.21 408.85 282.92 404.03 C 280.28 392.91 281.84 381.31 279.29 370.18 C 278.31 365.22 275.60 360.89 273.54 356.35 C 272.77 355.05 272.32 353.38 270.99 352.54 C 264.75 352.21 259.11 355.29 253.31 357.08 C 251.80 354.88 250.19 352.76 248.47 350.73 M 369.48 432.60 C 364.66 434.11 359.84 435.66 354.85 436.49 C 341.27 438.82 327.82 441.96 314.07 443.19 C 308.54 443.99 302.82 444.66 297.35 443.08 C 295.49 449.07 291.72 454.49 291.19 460.87 C 290.68 467.16 290.36 473.51 288.86 479.67 C 287.56 485.15 288.72 490.87 287.38 496.33 C 285.38 503.88 285.34 512.06 287.77 519.53 C 288.89 522.94 289.50 526.49 290.27 530.00 C 291.34 535.64 296.18 539.35 298.63 544.34 C 302.45 551.87 308.05 558.28 312.43 565.45 C 314.24 571.62 315.72 577.91 317.66 584.05 C 320.37 591.83 318.14 600.16 319.57 608.13 C 320.70 614.38 320.27 620.74 320.50 627.05 C 320.77 632.91 324.63 638.22 330.00 640.50 C 329.67 641.69 329.33 642.89 328.99 644.09 C 334.74 648.23 341.16 651.93 345.16 657.96 C 348.98 664.32 352.54 671.31 352.04 678.96 C 352.78 686.77 348.33 694.10 349.77 701.89 C 350.83 710.07 355.76 716.97 360.32 723.60 C 365.31 730.45 365.01 739.89 370.76 746.30 C 376.65 753.17 385.50 756.19 393.68 759.35 C 398.45 760.87 403.36 762.30 407.42 765.36 C 414.80 770.37 423.02 774.29 429.45 780.61 C 433.58 784.66 438.74 788.36 440.57 794.10 C 440.33 798.71 439.26 803.24 438.41 807.77 C 437.27 814.12 432.22 818.57 429.23 824.02 C 426.76 828.64 424.39 833.63 424.57 839.01 C 424.92 844.05 427.05 848.85 426.80 853.97 C 426.62 858.32 426.66 862.72 427.88 866.94 C 428.95 870.29 427.83 873.72 427.11 877.02 C 425.20 884.17 424.01 891.63 425.23 899.02 C 428.79 897.85 432.25 896.34 435.38 894.27 C 440.70 890.80 446.41 888.02 451.97 884.98 C 458.76 881.28 464.27 875.64 469.03 869.63 C 465.42 866.14 460.21 863.70 458.32 858.85 C 458.34 853.09 462.66 848.53 465.73 843.99 C 467.60 840.95 471.31 840.08 473.74 837.67 C 475.57 834.47 475.83 830.68 476.28 827.11 C 478.77 826.73 481.29 826.61 483.80 826.91 C 486.66 830.75 488.34 835.64 492.49 838.36 C 497.47 841.76 503.06 844.07 508.29 847.04 C 506.72 841.58 504.75 836.26 503.05 830.85 C 500.35 821.94 495.14 814.10 491.57 805.55 C 489.89 801.65 490.20 797.35 490.23 793.22 C 487.56 790.55 487.83 786.51 487.10 783.06 C 486.24 774.71 483.86 766.32 485.35 757.90 C 486.56 751.56 492.39 747.91 495.97 743.00 C 500.77 736.24 507.66 730.44 509.27 721.92 C 510.81 716.19 508.66 710.28 505.25 705.68 C 500.70 699.61 497.43 692.50 496.36 684.96 C 496.36 681.33 498.38 678.18 499.80 674.97 C 501.89 670.69 502.89 665.76 506.24 662.20 C 510.36 657.80 514.34 653.02 516.37 647.26 C 517.60 643.58 519.00 639.98 520.40 636.37 C 522.72 630.59 521.77 624.02 519.60 618.35 C 516.49 611.69 508.50 609.21 505.16 602.73 C 500.58 593.27 502.17 582.03 497.16 572.74 C 495.60 569.61 494.49 566.27 492.72 563.25 C 491.08 560.32 488.09 558.61 485.52 556.62 C 482.64 554.48 480.09 551.94 477.20 549.82 C 473.68 547.18 469.16 546.09 466.00 542.93 C 463.33 540.30 460.69 537.63 457.79 535.25 C 453.20 531.40 450.60 525.78 446.07 521.86 C 440.87 517.38 439.00 510.55 436.38 504.47 C 431.64 493.33 433.38 480.34 427.33 469.65 C 419.01 456.12 408.92 443.25 395.64 434.28 C 392.85 432.18 389.17 433.03 385.94 432.96 C 380.45 433.25 374.90 430.82 369.48 432.60 M 866.92 471.18 C 861.73 471.58 856.40 470.72 851.34 472.30 C 847.36 473.62 843.16 473.78 839.02 473.61 C 834.17 473.38 829.75 475.96 824.93 475.95 C 819.96 475.94 814.98 475.83 810.02 476.03 C 808.96 481.22 807.37 486.28 805.23 491.12 C 803.15 495.50 804.64 500.52 803.15 505.05 C 801.81 509.11 802.43 513.41 801.89 517.57 C 799.91 521.79 795.22 524.30 794.15 529.04 C 792.88 534.60 792.34 540.59 794.32 546.05 C 795.96 550.84 796.74 555.91 796.86 560.96 C 795.80 565.27 794.32 569.52 794.00 573.98 C 795.55 583.80 796.85 593.90 801.31 602.92 C 804.46 608.49 808.68 613.34 812.85 618.16 C 817.00 623.10 818.32 629.72 818.58 636.01 C 818.64 642.01 818.37 648.23 815.87 653.79 C 811.35 664.18 805.39 674.47 805.04 686.07 C 803.19 698.98 804.38 712.04 804.01 725.03 C 803.73 727.45 804.70 729.78 806.50 731.41 C 811.73 736.56 817.02 741.70 822.93 746.07 C 827.88 749.82 834.09 751.14 840.04 752.38 C 840.21 749.33 839.84 746.10 841.18 743.26 C 842.77 740.56 845.26 738.57 847.46 736.39 C 851.31 732.69 854.14 728.09 856.64 723.41 C 856.01 721.43 855.46 719.45 854.93 717.45 C 857.42 714.19 859.65 710.34 863.58 708.64 C 866.52 707.17 870.34 706.59 871.83 703.26 C 869.05 697.63 864.90 692.83 860.09 688.85 C 857.17 686.54 856.05 682.87 854.41 679.70 C 852.36 675.18 848.80 671.54 847.05 666.87 C 846.05 663.95 843.77 661.78 842.32 659.17 C 842.57 655.69 843.82 652.41 845.07 649.20 C 847.13 643.97 846.17 638.17 847.74 632.83 C 851.83 620.27 848.15 606.91 850.14 594.09 C 850.98 590.71 853.90 588.53 856.15 586.10 C 863.54 579.10 868.48 569.88 876.54 563.56 C 883.77 557.47 889.82 550.18 896.18 543.25 C 902.28 536.80 911.71 536.61 919.96 537.01 C 926.03 537.63 931.34 534.24 937.11 533.10 C 943.04 531.75 949.13 531.30 955.06 529.99 C 958.26 529.39 959.47 525.92 959.84 523.08 C 961.52 511.60 962.59 499.97 966.10 488.86 C 964.70 485.38 962.34 482.34 961.20 478.74 C 959.62 475.02 959.00 470.14 955.01 468.17 C 948.30 466.75 941.66 469.37 934.96 469.43 C 927.24 469.85 919.70 467.71 912.00 467.86 C 901.98 467.97 891.96 467.87 881.95 467.92 C 876.69 467.75 872.10 470.91 866.92 471.18 M 127.68 471.80 C 123.74 477.38 121.14 484.18 115.86 488.65 C 112.09 488.46 108.64 486.74 105.17 485.39 C 103.40 488.44 101.34 491.40 100.31 494.81 C 99.59 498.48 100.37 502.26 99.78 505.96 C 99.22 508.10 97.47 509.62 96.13 511.30 C 93.58 507.56 92.80 503.08 92.20 498.70 C 89.01 499.92 85.11 500.90 83.40 504.17 C 83.61 507.47 85.62 510.48 85.41 513.82 C 83.48 517.40 78.95 517.80 75.46 518.98 C 73.40 517.69 71.36 516.27 68.99 515.60 C 66.48 516.27 64.25 517.67 61.81 518.52 C 59.21 518.27 57.16 516.29 54.99 515.00 C 52.54 518.26 50.32 522.31 46.10 523.48 C 39.90 525.24 34.24 529.33 31.19 535.07 C 29.95 538.49 33.31 540.73 35.23 542.97 C 37.99 545.57 39.13 550.13 43.43 550.65 C 45.74 546.29 47.69 540.55 52.96 539.08 C 57.87 540.42 60.65 545.36 61.96 549.94 C 63.16 554.83 64.71 560.04 63.12 565.03 C 61.46 571.33 56.97 576.53 55.74 582.96 C 55.52 587.56 59.77 591.29 58.94 595.98 C 57.23 599.47 54.62 602.71 54.91 606.85 C 62.25 608.45 69.76 609.30 77.27 608.96 C 77.20 614.91 75.88 621.47 79.27 626.80 C 81.47 630.43 86.04 631.17 89.89 631.78 C 96.23 632.50 102.69 634.70 109.06 632.93 C 113.92 631.68 119.21 630.56 123.01 627.07 C 127.30 622.00 127.24 614.92 129.99 609.11 C 133.77 600.53 139.78 592.04 138.36 582.17 C 136.89 577.37 134.49 572.88 133.44 567.94 C 132.33 562.66 131.92 557.26 130.95 551.95 C 129.83 544.64 127.54 537.44 127.91 529.98 C 128.13 522.89 125.90 516.04 125.60 508.99 C 125.41 498.47 127.41 488.06 130.15 477.95 C 131.10 475.50 129.09 473.52 127.68 471.80 M 129.74 509.91 C 130.04 517.67 132.29 525.26 132.01 533.06 C 131.88 537.03 132.15 541.02 132.94 544.93 C 135.38 557.68 138.34 570.33 141.76 582.86 C 142.30 587.07 142.31 591.52 140.80 595.56 C 138.95 600.74 135.31 605.04 133.28 610.15 C 131.21 615.10 131.03 620.67 128.61 625.49 C 126.73 628.38 124.01 630.62 122.15 633.55 C 124.00 637.88 127.61 641.01 130.31 644.78 C 132.77 647.98 134.74 651.54 137.33 654.64 C 141.24 659.26 147.06 661.44 152.04 664.63 C 148.49 668.61 144.71 672.67 139.71 674.78 C 135.69 676.58 131.16 676.62 127.09 678.25 C 125.62 679.01 123.61 679.97 123.83 681.96 C 123.86 687.04 125.51 691.93 126.48 696.88 C 127.93 704.51 133.49 710.45 135.54 717.87 C 137.71 724.39 136.85 731.32 137.00 738.05 C 136.89 744.69 137.69 751.29 137.95 757.92 C 138.06 765.68 140.59 773.19 140.36 780.99 C 140.18 791.34 140.22 801.70 140.18 812.06 C 143.12 808.43 146.50 804.93 151.01 803.34 C 151.46 806.84 151.82 810.35 152.07 813.88 C 155.92 816.41 159.99 818.63 163.49 821.65 C 167.83 825.42 170.64 830.52 173.50 835.41 C 178.00 832.79 181.74 829.12 185.29 825.36 C 189.03 821.41 194.39 819.85 199.26 817.82 C 197.69 815.33 195.25 813.06 194.95 810.02 C 195.46 806.00 198.13 802.49 201.31 800.12 C 204.22 798.57 207.54 800.15 210.03 801.81 C 214.89 805.01 217.04 810.67 219.36 815.74 C 222.00 821.73 227.17 826.12 230.01 831.99 C 232.73 837.74 234.35 844.38 232.54 850.66 C 230.61 857.55 229.54 864.64 227.81 871.58 C 226.87 875.29 226.62 879.24 227.66 882.97 C 230.62 894.74 233.31 907.00 231.50 919.16 C 228.90 923.94 229.95 929.66 227.54 934.50 C 225.64 938.84 223.12 942.88 221.25 947.24 C 225.57 949.03 229.99 952.05 234.86 951.19 C 238.31 949.09 239.26 944.71 240.20 941.06 C 242.19 931.28 244.24 921.43 248.24 912.23 C 251.24 905.57 253.02 898.47 255.27 891.55 C 258.57 882.68 256.08 873.07 257.29 863.90 C 258.28 857.07 260.11 850.39 262.46 843.91 C 264.76 838.19 263.81 831.93 264.88 825.99 C 265.52 820.77 268.84 816.17 268.80 810.85 C 267.86 802.04 259.13 796.68 257.91 787.97 C 256.51 781.34 257.87 774.62 258.10 767.96 C 258.74 755.10 260.70 742.02 266.30 730.32 C 269.28 723.96 269.09 716.81 270.54 710.08 C 271.02 706.59 272.32 702.79 270.59 699.45 C 267.52 693.70 262.27 689.35 259.78 683.26 C 258.18 679.68 259.23 675.71 259.77 672.03 C 260.86 664.73 259.15 657.28 260.80 650.04 C 262.24 643.34 264.74 636.81 264.98 629.89 C 265.18 624.91 265.90 619.95 265.86 614.97 C 265.78 610.50 262.90 606.83 260.88 603.06 C 255.24 593.43 253.55 582.25 251.35 571.49 C 250.25 565.21 243.85 561.87 242.02 555.92 C 239.57 548.12 240.27 539.72 237.72 531.92 C 236.23 526.62 234.13 521.01 229.52 517.65 C 220.20 510.81 209.30 506.64 199.51 500.57 C 195.12 498.00 190.96 494.74 185.91 493.58 C 180.35 492.38 174.65 493.42 169.03 493.11 C 164.42 493.06 160.23 490.97 155.94 489.57 C 151.77 488.11 147.39 487.34 143.32 485.60 C 139.64 484.04 136.44 481.60 133.04 479.54 C 131.63 489.61 129.27 499.67 129.74 509.91 M 590.58 534.71 C 583.55 539.58 575.15 541.83 567.00 543.97 C 564.95 547.42 565.02 552.03 564.81 556.05 C 564.45 567.03 570.73 577.23 579.27 583.73 C 583.48 586.65 585.24 591.69 588.31 595.60 C 593.07 601.63 592.87 609.86 596.66 616.35 C 599.21 619.78 601.69 623.32 604.90 626.18 C 608.73 629.63 611.96 634.23 612.27 639.54 C 613.53 647.96 612.87 656.55 610.83 664.80 C 617.35 674.85 616.45 687.46 621.20 698.20 C 627.40 697.05 633.03 694.04 639.09 692.42 C 646.23 690.40 653.97 692.72 660.96 689.88 C 667.75 687.15 674.16 683.44 680.00 679.04 C 682.27 675.08 686.66 673.04 688.83 669.01 C 691.29 665.47 690.72 660.91 692.08 656.96 C 683.02 652.68 672.91 651.01 662.95 650.97 C 657.93 650.69 652.95 648.06 650.30 643.71 C 643.88 633.28 643.36 620.42 637.08 609.92 C 634.35 605.43 632.69 600.25 632.87 594.97 C 632.56 588.02 635.50 581.11 633.69 574.21 C 631.93 567.89 633.52 561.19 631.68 554.89 C 629.46 546.56 626.63 538.40 624.98 529.92 C 617.61 529.21 610.31 527.68 602.91 527.30 C 597.63 527.16 594.45 531.95 590.58 534.71 M 936.52 537.73 C 931.04 538.96 925.71 541.34 920.00 541.04 C 913.62 541.23 906.39 539.82 900.95 544.04 C 892.66 551.07 886.73 560.45 878.25 567.30 C 871.95 572.08 868.75 579.70 862.72 584.73 C 858.97 588.10 854.55 591.75 853.84 597.05 C 852.81 606.36 854.41 615.73 853.69 625.06 C 853.33 630.61 849.48 635.27 849.49 640.90 C 849.38 646.00 848.55 651.04 846.67 655.80 C 848.07 658.37 849.11 661.12 849.76 663.98 C 850.71 667.97 853.57 671.06 855.54 674.56 C 857.30 677.48 858.47 680.72 860.43 683.53 C 862.59 686.36 865.60 688.38 867.84 691.16 C 870.26 694.08 871.85 697.76 875.02 700.01 C 877.75 699.61 879.67 697.28 881.84 695.76 C 900.64 682.44 917.85 666.87 937.80 655.18 C 939.89 656.06 942.00 656.91 944.14 657.74 C 945.99 652.98 945.30 647.80 946.06 642.86 C 946.53 638.95 951.61 636.34 949.63 632.07 C 946.08 626.26 943.81 619.83 940.67 613.82 C 939.55 612.37 940.99 610.98 941.79 609.87 C 945.17 605.44 949.41 601.55 954.71 599.61 C 954.94 596.40 955.42 593.16 954.99 589.96 C 954.26 587.35 952.17 585.43 950.71 583.23 C 947.00 578.69 947.31 572.31 948.28 566.88 C 950.16 559.35 952.48 551.92 955.72 544.86 C 957.37 541.34 956.99 537.37 957.00 533.60 C 950.26 535.41 943.29 536.09 936.52 537.73 M 70.48 631.93 C 71.41 638.55 76.56 644.21 75.71 651.14 C 75.10 657.31 70.64 661.98 66.80 666.46 C 70.06 671.22 74.29 675.46 76.10 681.06 C 78.06 687.23 80.29 693.41 80.87 699.90 C 81.31 705.97 81.88 712.02 82.19 718.10 C 82.83 726.99 85.75 735.45 87.94 744.03 C 88.45 747.08 91.29 748.82 93.06 751.13 C 93.79 755.37 94.58 759.62 95.01 763.91 C 95.73 769.29 92.67 774.34 89.17 778.14 C 85.00 780.96 79.83 781.88 75.71 784.83 C 71.83 787.58 66.76 787.42 62.70 789.73 C 57.39 794.13 54.70 801.12 48.70 804.80 C 44.27 805.89 39.57 804.99 35.17 806.26 C 30.85 807.94 27.54 811.38 23.42 813.47 C 19.27 815.67 14.41 816.01 10.28 818.26 C 7.38 819.73 7.70 823.42 7.02 826.14 C 10.62 825.66 14.32 824.36 17.94 825.44 C 25.04 827.28 31.25 831.53 36.55 836.50 C 41.02 840.76 46.87 843.25 52.84 844.57 C 55.38 845.18 57.87 844.13 60.26 843.40 C 64.86 841.83 69.51 840.42 74.16 839.02 C 81.40 836.86 87.63 832.40 94.56 829.51 C 105.31 825.16 114.48 817.82 124.97 812.96 C 128.57 811.23 132.58 810.93 136.49 810.57 C 136.63 804.38 136.48 798.20 136.41 792.02 C 136.28 784.97 136.75 777.87 135.67 770.87 C 134.41 762.60 132.77 754.33 132.88 745.92 C 132.38 736.63 133.63 727.23 131.88 718.04 C 130.87 712.82 127.08 708.84 124.63 704.29 C 122.11 699.92 122.13 694.73 120.96 689.96 C 120.13 686.22 118.68 681.74 121.61 678.53 C 124.21 674.47 129.07 673.13 133.54 672.34 C 138.12 671.59 142.26 669.30 145.75 666.31 C 145.45 665.35 144.34 664.98 143.67 664.37 C 139.31 661.47 135.31 657.95 132.36 653.60 C 127.66 646.89 122.86 640.27 117.73 633.89 C 113.55 635.27 109.39 637.10 104.91 637.16 C 99.03 637.31 93.21 636.27 87.42 635.45 C 82.69 634.73 79.79 630.54 75.93 628.19 C 73.49 626.40 70.36 629.34 70.48 631.93 M 686.56 676.29 C 684.75 680.14 680.98 682.39 677.64 684.76 C 672.31 688.19 667.01 691.85 660.99 693.98 C 656.19 695.73 651.00 695.17 646.01 695.43 C 638.46 695.57 631.69 699.32 624.68 701.65 C 623.67 702.19 621.70 702.24 621.97 703.88 C 621.40 712.07 620.16 720.25 617.60 728.07 C 615.81 733.59 611.18 737.44 608.38 742.40 C 605.32 747.64 602.06 752.75 599.00 757.99 C 594.58 765.43 593.72 774.45 588.79 781.63 C 587.02 784.72 583.93 788.16 585.59 791.95 C 590.09 804.02 599.08 814.12 601.87 826.88 C 603.19 832.23 602.00 837.69 601.72 843.08 C 601.30 848.41 602.07 853.73 602.49 859.05 C 603.06 864.76 598.97 870.13 600.75 875.83 C 602.57 882.77 604.78 889.73 604.96 896.96 C 604.53 907.94 600.48 918.42 595.20 927.94 C 598.83 930.03 602.58 932.21 606.81 932.79 C 613.26 933.62 619.64 931.98 625.98 930.99 C 633.10 929.82 640.55 928.76 646.71 924.70 C 653.95 919.91 660.65 914.28 668.30 910.13 C 673.90 906.98 680.58 907.70 686.76 907.71 C 688.02 903.44 689.30 899.18 691.02 895.08 C 693.47 894.69 695.93 894.25 698.38 893.77 C 698.43 887.40 698.67 880.86 700.64 874.77 C 703.38 873.11 706.49 872.00 708.85 869.77 C 715.04 864.36 717.94 856.43 722.85 850.03 C 724.46 847.53 726.85 845.05 726.68 841.89 C 724.91 835.49 716.86 833.48 715.00 827.17 C 714.97 821.91 717.73 817.16 719.20 812.22 C 724.18 799.00 727.40 785.22 732.03 771.89 C 733.82 766.44 735.18 760.77 735.00 755.00 C 734.86 747.64 735.52 740.21 733.95 732.97 C 732.45 726.38 733.22 719.63 732.89 712.96 C 731.62 701.24 724.38 691.48 718.17 681.87 C 714.71 676.14 709.44 671.91 704.80 667.19 C 702.41 664.79 699.27 663.36 695.99 662.69 C 693.32 667.55 689.77 671.81 686.56 676.29 M 549.93 896.21 C 552.76 895.02 554.39 892.29 554.28 889.26 C 551.38 890.34 550.17 893.32 549.93 896.21 Z" />
<path fill="#2d2d2d" opacity="0.94" d=" M 511.40 621.03 C 512.46 621.67 513.38 622.52 514.11 623.54 C 513.58 623.91 512.51 624.64 511.98 625.01 C 509.53 624.70 510.00 622.30 511.40 621.03 Z" />
<path fill="#2d2d2d" opacity="0.94" d=" M 142.67 708.93 C 145.13 711.22 145.95 714.69 146.17 717.93 C 145.07 717.21 143.99 716.47 142.91 715.75 C 142.63 713.48 142.55 711.20 142.67 708.93 Z" />
</g>
<g id="#bbbbbbff">
<path fill="#bbbbbb" opacity="1.00" d=" M 868.49 5.61 C 870.08 4.27 871.89 5.97 873.38 6.66 C 877.72 9.57 882.13 13.50 883.02 18.92 C 884.30 24.72 883.12 30.88 885.23 36.51 C 886.83 41.08 889.22 45.32 891.08 49.78 C 892.08 52.09 892.89 54.56 894.54 56.52 C 896.73 59.26 899.66 61.47 901.12 64.74 C 902.95 68.78 904.34 73.21 907.70 76.31 C 910.12 79.06 914.35 81.64 913.21 85.92 C 911.39 95.02 901.88 99.00 895.10 103.99 C 892.88 102.76 890.70 101.02 888.06 100.99 C 883.21 100.83 877.87 102.16 873.59 99.18 C 865.79 102.55 860.93 110.00 857.44 117.41 C 856.10 120.68 852.71 122.15 850.06 124.15 C 849.69 128.40 848.18 132.33 845.13 135.37 C 845.14 141.50 840.85 146.83 841.99 153.03 C 842.46 156.43 845.35 158.71 847.76 160.86 C 849.65 160.16 851.57 159.49 853.51 158.89 C 855.88 161.80 858.93 164.11 862.52 165.29 C 861.03 172.54 860.98 180.07 862.66 187.29 C 863.60 191.31 865.97 194.81 866.92 198.82 C 867.03 201.22 866.39 203.57 866.35 205.96 C 866.78 207.82 867.98 209.36 868.91 211.00 C 868.21 213.23 867.36 215.60 868.13 217.93 C 869.23 218.83 870.45 219.07 871.79 218.65 C 875.25 217.91 878.70 217.10 882.24 216.81 C 880.15 227.41 878.56 238.14 875.38 248.49 C 874.33 251.92 873.73 255.47 872.64 258.89 C 871.42 262.64 868.80 265.72 867.37 269.38 C 866.12 272.07 865.40 275.13 863.27 277.30 C 859.25 281.31 853.80 283.67 848.21 284.35 C 833.85 286.67 822.24 296.06 811.05 304.66 C 803.84 310.44 796.93 317.05 788.10 320.30 C 784.02 321.86 779.19 321.70 775.79 324.75 C 771.59 328.27 766.95 331.18 762.50 334.35 C 759.80 336.24 756.51 336.81 753.40 337.63 C 747.86 339.03 742.81 341.84 737.98 344.82 C 734.67 346.72 733.13 350.35 731.44 353.57 C 729.67 357.16 727.27 360.37 724.85 363.52 C 720.53 361.02 716.16 358.59 711.99 355.85 C 704.52 350.79 699.63 342.65 697.19 334.10 C 695.38 328.89 699.60 323.36 696.66 318.37 C 692.76 310.43 689.78 300.86 681.58 296.28 C 677.07 293.47 675.27 288.10 671.38 284.64 C 666.40 279.89 661.06 274.35 653.91 273.39 C 644.83 274.32 635.63 275.64 626.51 274.35 C 622.70 272.88 619.94 269.63 616.44 267.61 C 609.85 263.64 605.96 256.74 600.30 251.73 C 595.63 247.57 590.61 243.58 584.68 241.39 C 579.17 239.31 573.39 237.75 568.43 234.45 C 566.04 233.16 563.81 231.13 561.01 230.95 C 555.46 231.51 550.48 234.60 546.48 238.35 C 540.02 244.98 533.10 251.21 525.98 257.11 C 523.40 255.55 521.23 253.44 518.97 251.49 C 521.61 245.51 523.87 239.22 528.60 234.48 C 532.71 227.52 542.43 229.23 547.45 223.39 C 552.20 218.34 556.23 212.66 560.57 207.26 C 560.22 204.98 559.33 202.52 560.46 200.31 C 562.27 196.27 564.54 192.37 565.40 187.97 C 563.94 187.00 562.50 186.04 561.06 185.07 C 563.37 181.17 563.95 176.60 564.08 172.15 C 561.61 168.93 559.16 165.28 559.29 161.04 C 559.14 155.71 562.31 149.86 559.05 144.95 C 554.02 138.38 544.50 138.78 538.65 133.28 C 535.34 130.12 533.13 126.00 531.21 121.91 C 534.94 120.04 538.84 118.45 542.84 117.25 C 548.55 115.62 553.29 120.97 558.96 120.12 C 573.32 115.01 582.90 102.58 592.77 91.67 C 597.05 86.68 603.80 84.99 608.49 80.51 C 612.11 76.86 610.90 70.96 613.96 66.98 C 616.93 63.56 621.56 62.59 625.28 60.32 C 627.74 57.68 630.49 55.37 633.25 53.04 C 634.70 50.28 634.84 46.73 637.50 44.69 C 640.18 42.52 641.01 39.10 642.34 36.09 C 643.36 33.55 646.34 32.09 648.94 32.05 C 651.92 33.29 654.28 35.58 657.10 37.12 C 658.68 36.72 659.69 35.21 660.97 34.26 C 665.01 35.29 669.01 33.90 672.86 32.78 C 675.52 31.78 678.22 33.15 680.92 33.27 C 687.47 30.64 692.84 25.30 699.95 24.00 C 706.95 24.66 710.90 31.57 713.59 37.32 C 711.73 40.57 710.02 43.94 708.95 47.55 C 711.39 48.53 714.12 49.11 716.17 50.85 C 718.08 53.11 718.46 56.28 720.35 58.56 C 723.66 60.94 728.09 61.08 731.95 60.19 C 737.76 58.82 743.87 58.05 749.78 59.32 C 752.81 60.74 754.84 63.58 757.57 65.46 C 760.85 68.00 766.04 68.07 769.05 65.04 C 771.98 62.70 770.13 58.28 772.42 55.57 C 774.24 53.22 776.99 51.55 779.95 51.13 C 783.26 51.31 787.28 53.95 790.04 50.93 C 793.58 48.15 793.13 43.30 793.46 39.30 C 798.45 39.19 803.55 38.35 807.99 35.95 C 811.77 31.99 813.12 26.07 817.47 22.59 C 821.17 21.21 825.26 22.17 829.12 22.10 C 831.35 19.70 833.41 16.57 836.89 15.97 C 840.85 15.17 844.90 14.65 848.68 13.09 C 852.78 17.61 856.90 22.93 863.20 24.31 C 862.41 20.92 860.46 17.59 861.08 14.02 C 862.34 10.40 865.49 7.81 868.49 5.61 Z" />
<path fill="#bbbbbb" opacity="1.00" d=" M 852.03 11.50 C 854.04 11.66 856.07 11.82 858.10 11.99 C 857.52 14.08 857.08 16.20 856.65 18.32 C 855.01 16.11 853.54 13.80 852.03 11.50 Z" />
<path fill="#bbbbbb" opacity="1.00" d=" M 934.37 191.32 C 937.49 189.21 940.94 187.59 944.64 186.81 C 946.11 190.76 949.05 195.05 947.38 199.36 C 944.51 203.41 938.98 205.18 937.14 210.04 C 936.82 212.36 937.86 214.61 938.26 216.87 C 935.95 220.47 933.66 224.08 931.57 227.82 C 933.36 230.62 935.31 233.60 935.27 237.08 C 933.84 238.53 931.65 238.95 929.87 239.87 C 930.08 245.57 931.12 251.21 931.84 256.86 C 933.15 259.41 936.45 260.76 936.94 263.84 C 937.23 266.99 934.89 269.44 933.70 272.15 C 936.39 277.85 941.78 281.63 945.73 286.40 C 947.79 289.39 947.80 293.25 949.47 296.44 C 951.65 300.52 955.56 303.62 956.71 308.24 C 957.39 312.17 956.59 316.17 957.14 320.11 C 957.65 323.09 958.87 325.94 958.95 328.99 C 959.31 336.19 958.08 343.64 960.55 350.59 C 961.66 353.97 964.41 357.01 968.10 357.44 C 976.56 359.07 985.16 361.61 992.02 367.04 C 995.64 370.39 995.99 375.83 999.19 379.50 C 1003.37 384.30 1009.39 386.76 1014.52 390.34 C 1019.76 394.54 1020.01 401.96 1023.82 407.16 C 1027.81 409.49 1033.37 409.71 1036.06 413.99 C 1038.24 417.67 1039.86 421.69 1042.55 425.07 C 1045.02 423.39 1047.51 421.72 1050.00 420.06 C 1052.40 422.56 1055.83 424.77 1056.91 428.07 C 1052.28 432.75 1046.87 436.77 1043.17 442.30 C 1040.15 447.21 1040.94 453.37 1038.59 458.52 C 1036.11 462.29 1032.79 465.42 1029.78 468.76 C 1026.65 472.32 1021.37 470.82 1017.31 472.23 C 1008.14 475.66 999.43 480.22 990.88 484.95 C 988.47 484.84 986.48 483.02 984.09 483.00 C 981.06 484.15 978.34 486.26 975.04 486.60 C 972.12 486.22 968.96 485.31 966.94 483.07 C 964.46 478.86 964.14 473.73 961.53 469.58 C 959.39 465.97 955.11 464.04 951.03 463.94 C 946.21 463.59 941.75 465.96 936.98 466.09 C 930.21 466.82 923.49 465.60 916.92 464.15 C 904.61 463.78 892.27 464.12 879.96 463.98 C 876.40 463.74 873.27 465.60 870.15 466.97 C 865.68 469.18 860.60 467.39 855.87 468.19 C 848.57 469.23 841.20 469.58 833.87 470.21 C 826.39 471.97 818.71 471.31 811.12 471.43 C 810.89 462.98 811.03 454.53 811.01 446.08 C 810.84 441.94 813.34 438.43 814.56 434.64 C 815.92 429.83 815.42 424.04 811.42 420.59 C 808.60 417.29 804.01 417.23 800.03 417.13 C 795.31 417.01 790.71 418.14 786.07 418.75 C 782.24 418.79 778.58 417.44 774.83 416.86 C 773.81 415.41 773.12 413.78 772.59 412.11 C 771.40 410.74 769.85 409.74 768.50 408.56 C 767.43 408.26 766.38 407.97 765.34 407.68 C 765.01 404.48 764.36 401.33 763.53 398.24 C 765.45 395.10 765.75 391.36 767.09 388.00 C 769.50 381.76 773.48 376.19 778.34 371.62 C 776.65 369.10 774.84 366.04 771.59 365.49 C 767.08 364.77 762.49 365.06 757.95 365.02 C 750.43 364.92 743.18 368.91 735.64 367.07 C 732.86 366.65 730.79 364.63 728.94 362.71 C 732.26 359.57 734.59 355.61 736.68 351.60 C 738.66 347.54 743.31 346.21 747.00 344.19 C 752.02 341.33 758.22 341.50 762.99 338.14 C 767.76 334.79 772.88 331.96 777.46 328.34 C 781.18 325.33 786.22 325.35 790.42 323.37 C 805.85 316.43 816.30 302.11 831.38 294.59 C 834.23 293.17 837.08 291.71 840.08 290.60 C 844.96 288.73 850.30 288.38 855.11 286.26 C 859.98 284.16 864.69 281.16 867.84 276.82 C 869.87 273.08 870.82 268.82 873.34 265.33 C 876.96 260.19 877.10 253.67 879.23 247.92 C 882.87 237.88 883.34 227.01 887.12 217.01 C 889.77 217.88 892.50 218.46 895.26 218.97 C 897.56 216.41 899.05 212.83 902.40 211.43 C 906.56 209.40 911.45 209.07 915.29 206.37 C 918.24 202.94 919.39 197.98 923.44 195.51 C 926.95 193.78 931.13 193.67 934.37 191.32 Z" />
<path fill="#bbbbbb" opacity="1.00" d=" M 545.22 244.15 C 549.44 238.89 555.51 235.63 562.10 234.46 C 566.18 237.88 570.87 240.61 576.03 242.03 C 585.92 244.92 595.09 250.39 602.11 257.97 C 606.11 262.23 609.57 267.15 614.62 270.28 C 616.89 271.89 619.66 272.96 621.49 275.13 C 621.98 276.96 621.01 278.81 620.45 280.53 C 615.39 292.28 607.99 302.96 603.97 315.17 C 602.14 320.83 600.41 326.55 597.72 331.87 C 595.23 336.83 594.41 342.39 592.19 347.45 C 590.89 350.42 588.98 353.06 587.67 356.01 C 589.71 358.47 592.69 359.94 595.34 361.69 C 601.51 365.61 609.47 366.77 614.27 372.71 C 619.47 379.32 626.31 384.40 633.53 388.61 C 638.73 391.42 644.80 391.71 650.26 393.85 C 653.58 395.16 656.81 396.68 659.99 398.31 C 661.18 398.58 661.01 399.94 661.14 400.85 C 661.35 405.23 661.51 409.61 661.86 413.98 C 662.39 421.76 664.64 429.31 665.26 437.09 C 666.07 444.80 662.61 452.34 664.19 460.06 C 665.81 467.69 664.93 475.59 663.06 483.10 C 661.91 487.41 658.91 490.85 656.54 494.53 C 653.75 498.57 651.14 503.15 646.58 505.43 C 640.05 508.64 633.06 510.92 626.82 514.73 C 622.45 517.22 619.10 521.04 615.07 524.00 C 609.71 524.31 604.30 523.11 598.99 524.09 C 594.27 526.00 591.55 530.81 586.98 532.99 C 580.94 536.03 574.50 538.33 567.82 539.42 C 564.56 530.36 560.11 521.69 554.26 514.03 C 551.49 510.34 547.65 507.71 544.23 504.70 C 537.81 499.15 531.71 493.04 527.21 485.79 C 521.64 476.90 513.76 469.68 508.51 460.55 C 505.17 454.88 503.18 448.49 502.14 442.03 C 502.77 436.42 501.18 430.91 500.49 425.39 C 497.61 417.50 500.95 409.12 498.84 401.17 C 497.49 397.26 494.51 394.22 491.83 391.19 C 486.50 385.86 482.33 379.44 476.51 374.59 C 473.50 372.06 469.90 369.29 469.77 364.98 C 469.12 361.08 472.33 358.33 474.45 355.52 C 477.42 352.05 479.40 347.84 482.50 344.47 C 485.77 341.32 489.87 339.07 492.77 335.51 C 496.94 330.39 501.95 325.76 504.63 319.60 C 506.48 315.48 508.46 311.43 510.35 307.33 C 512.86 302.16 511.99 295.89 515.28 291.04 C 518.57 286.02 522.15 281.14 524.67 275.66 C 525.62 273.82 525.33 271.71 525.48 269.73 C 526.35 270.61 527.21 271.50 528.09 272.40 C 528.19 268.44 527.35 264.28 528.52 260.45 C 532.59 253.64 540.33 250.28 545.22 244.15 Z" />
<path fill="#bbbbbb" opacity="1.00" d=" M 496.69 282.76 C 497.87 280.11 499.12 277.48 500.37 274.86 C 503.05 278.37 507.36 279.75 510.71 282.39 C 513.92 286.98 510.32 292.37 509.29 297.08 C 505.75 314.10 495.75 329.58 481.93 340.08 C 477.06 343.68 474.83 349.51 471.07 354.06 C 468.65 357.28 465.68 360.76 465.95 365.05 C 466.13 370.68 470.06 375.32 474.53 378.36 C 480.55 382.37 484.46 388.57 489.11 393.96 C 491.54 396.96 494.45 399.92 495.16 403.88 C 496.88 412.50 498.62 421.27 497.73 430.11 C 496.80 441.38 499.60 452.79 505.36 462.50 C 508.48 468.47 513.28 473.25 517.71 478.24 C 522.32 483.24 524.66 489.81 528.94 495.07 C 531.91 498.72 535.29 502.03 538.72 505.25 C 543.39 509.65 549.56 512.48 553.11 518.02 C 556.80 523.68 560.97 529.26 562.76 535.88 C 564.65 543.52 558.65 550.48 560.21 558.13 C 562.01 569.46 568.32 580.61 578.48 586.38 C 581.50 588.54 582.94 592.15 584.39 595.44 C 586.30 600.21 589.34 604.52 590.47 609.59 C 591.68 613.68 592.21 618.62 596.01 621.25 C 599.14 623.66 601.81 626.59 604.65 629.34 C 605.91 630.71 607.40 632.13 607.77 634.06 C 609.11 640.62 609.54 647.39 608.84 654.06 C 608.47 657.67 606.47 661.10 607.09 664.79 C 607.96 667.02 609.40 668.96 610.69 670.96 C 610.21 672.19 609.75 673.44 609.28 674.69 C 613.78 681.39 614.39 689.61 616.69 697.15 C 619.74 706.71 616.33 716.61 614.09 725.95 C 612.53 733.14 606.09 737.61 602.90 743.95 C 600.09 749.47 596.82 754.73 594.03 760.26 C 590.77 766.53 589.65 773.75 585.71 779.70 C 583.65 783.10 580.56 786.61 581.43 790.90 C 582.20 798.24 586.40 804.50 590.77 810.21 C 595.16 816.66 598.06 824.20 598.88 831.98 C 598.86 837.96 596.62 843.85 597.58 849.86 C 598.40 855.47 599.39 861.21 597.90 866.81 C 593.05 865.26 587.93 865.25 582.99 864.27 C 578.35 866.28 573.28 866.81 568.53 868.42 C 562.09 871.24 562.22 879.90 556.34 883.28 C 552.52 885.68 548.84 888.30 545.56 891.42 C 539.05 885.16 534.60 877.17 528.51 870.54 C 524.68 866.05 519.96 862.34 516.54 857.50 C 514.44 854.57 513.49 851.06 512.39 847.69 C 509.19 837.71 506.17 827.63 501.70 818.12 C 499.03 812.24 495.27 806.69 494.37 800.16 C 493.32 792.73 491.54 785.41 490.86 777.93 C 490.16 771.00 487.48 763.97 489.56 757.04 C 492.53 749.40 500.00 745.05 504.54 738.51 C 508.46 732.84 512.42 726.88 513.90 720.05 C 514.78 715.31 512.36 710.88 509.94 707.03 C 505.75 700.58 502.15 693.63 500.29 686.13 C 499.47 683.35 501.46 680.90 502.70 678.61 C 506.49 672.88 508.45 666.00 513.29 660.96 C 518.18 655.86 519.64 648.79 522.61 642.60 C 526.22 634.79 527.70 625.22 523.67 617.28 C 520.43 610.99 513.59 607.94 509.34 602.52 C 507.15 599.52 506.95 595.67 506.33 592.14 C 505.11 582.20 502.00 572.56 497.66 563.57 C 495.01 558.00 489.32 555.07 484.94 551.08 C 482.64 549.08 480.96 546.23 478.02 545.07 C 475.14 543.86 471.82 543.51 469.46 541.29 C 460.56 532.91 451.53 524.43 444.80 514.14 C 438.59 503.78 437.10 491.61 435.00 479.95 C 433.74 472.23 429.38 465.53 424.77 459.39 C 416.80 449.08 408.53 438.59 397.56 431.30 C 393.57 428.54 388.56 428.90 383.95 428.66 C 379.32 428.49 374.65 427.14 370.05 428.27 C 365.28 429.45 360.81 431.70 355.91 432.39 C 343.23 434.44 330.69 437.48 317.84 438.34 C 312.22 438.68 306.68 440.53 301.02 439.89 C 297.49 439.05 295.88 435.48 294.46 432.52 C 291.54 425.93 288.67 419.14 288.06 411.88 C 287.24 402.18 283.97 392.81 284.03 383.02 C 284.10 378.11 283.59 373.20 282.52 368.41 C 281.46 363.91 279.08 359.88 277.53 355.55 C 274.57 347.57 272.31 339.35 269.88 331.20 C 276.30 331.78 282.68 332.96 288.74 335.22 C 292.57 336.77 296.75 336.47 300.75 335.96 C 300.11 333.19 299.38 330.44 298.59 327.71 C 301.44 322.74 300.98 315.64 306.29 312.33 C 309.69 310.83 313.08 313.38 315.12 315.94 C 320.45 322.65 321.45 332.04 328.07 337.86 C 330.23 336.85 332.34 335.73 334.55 334.81 C 338.72 333.12 343.57 333.10 347.29 330.31 C 350.08 328.31 352.95 326.38 356.17 325.11 C 356.92 328.89 357.02 333.16 359.91 336.06 C 361.54 336.13 363.18 336.22 364.83 336.31 C 365.64 334.20 366.48 332.10 367.31 329.99 C 371.27 329.52 375.40 329.91 379.15 328.27 C 381.85 326.97 384.84 327.75 387.67 328.06 C 390.80 325.51 393.97 322.62 398.07 321.81 C 402.05 320.93 406.47 320.46 409.44 317.34 C 412.23 314.57 416.20 313.94 419.69 312.49 C 422.14 309.52 420.79 305.24 421.29 301.71 C 427.09 302.51 433.04 303.85 438.88 302.56 C 444.52 300.98 447.96 295.70 453.13 293.25 C 457.09 291.28 461.66 291.34 465.77 289.82 C 468.45 288.65 470.48 286.41 473.06 285.04 C 475.31 284.46 477.66 284.83 479.96 284.89 C 485.62 285.33 491.17 283.82 496.69 282.76 Z" />
<path fill="#bbbbbb" opacity="1.00" d=" M 625.47 278.41 C 633.91 278.30 642.52 279.76 650.80 277.48 C 654.68 276.14 658.47 278.49 661.49 280.71 C 664.40 283.04 667.07 285.65 670.04 287.92 C 674.09 290.98 675.31 296.49 679.60 299.33 C 686.85 303.93 690.05 312.28 693.30 319.82 C 694.85 322.77 693.34 325.98 692.88 329.00 C 692.08 332.77 693.99 336.32 695.42 339.68 C 697.69 344.72 699.61 350.30 704.12 353.85 C 711.15 359.40 718.18 365.59 727.03 367.99 C 731.66 369.17 736.10 371.36 740.95 371.48 C 746.04 371.30 750.85 369.24 755.95 369.09 C 762.06 368.94 768.25 368.73 774.27 370.07 C 771.63 374.57 767.96 378.46 766.15 383.42 C 764.19 388.49 760.13 393.13 760.80 398.88 C 761.06 402.45 760.44 406.76 763.74 409.20 C 768.00 412.33 770.33 417.30 774.35 420.66 C 778.27 421.21 782.10 422.50 786.03 422.91 C 793.13 421.33 800.53 421.00 807.71 422.29 C 810.83 423.87 811.46 427.78 811.33 430.95 C 810.94 435.23 807.72 438.62 807.36 442.93 C 806.15 454.63 808.34 466.59 805.51 478.15 C 804.65 484.67 801.01 490.46 800.51 497.04 C 800.08 503.22 798.40 509.22 798.13 515.41 C 798.08 518.78 795.26 520.93 793.54 523.50 C 789.31 529.63 787.66 537.75 790.04 544.91 C 791.25 548.87 793.27 552.73 793.03 556.99 C 793.44 563.26 788.93 568.91 790.32 575.22 C 791.84 585.41 793.49 595.92 798.72 604.98 C 802.31 611.28 807.74 616.23 811.78 622.21 C 816.42 628.87 815.84 637.54 814.83 645.20 C 813.95 652.10 809.91 657.90 807.09 664.08 C 800.99 677.12 800.73 691.86 800.68 705.97 C 801.01 714.66 800.25 723.37 800.95 732.04 C 805.14 735.16 809.80 737.74 813.01 741.99 C 819.87 750.08 829.84 754.63 840.16 756.35 C 839.01 763.69 833.10 769.69 826.08 771.73 C 824.13 771.64 822.25 770.84 820.30 771.03 C 819.07 771.97 817.96 773.04 816.83 774.09 C 816.34 777.49 819.57 781.68 816.41 784.35 C 812.55 787.91 806.72 786.97 802.42 789.58 C 797.60 793.94 795.90 800.49 792.74 805.97 C 790.07 810.61 788.55 815.74 786.66 820.71 C 785.49 823.97 783.14 826.57 781.47 829.56 C 779.67 832.76 780.29 836.57 779.70 840.06 C 779.03 844.38 778.32 848.69 777.95 853.05 C 777.77 856.16 775.81 858.73 774.32 861.35 C 772.31 864.51 771.23 868.14 769.34 871.36 C 766.63 876.00 763.29 880.28 761.05 885.20 C 757.48 892.74 756.74 901.16 754.28 909.06 C 752.25 915.60 750.66 922.35 750.78 929.24 C 743.47 927.74 738.05 922.20 733.01 917.11 C 737.00 913.04 739.21 907.25 739.47 901.61 C 736.86 902.49 734.07 903.21 731.94 905.04 C 729.37 907.49 728.26 911.42 724.84 912.96 C 721.42 914.54 717.62 917.17 713.76 915.40 C 708.10 913.19 700.39 911.77 698.42 905.09 C 698.92 900.51 702.20 896.66 702.17 891.95 C 702.79 886.27 702.11 879.10 707.52 875.45 C 712.53 872.09 716.36 867.34 719.18 862.04 C 722.51 855.72 726.91 850.07 731.68 844.79 C 730.46 841.16 729.15 837.41 726.41 834.64 C 723.66 831.80 720.50 829.34 718.27 826.03 C 720.31 822.50 721.59 818.63 722.48 814.67 C 726.96 804.91 729.99 794.51 732.07 783.99 C 733.60 777.58 736.50 771.58 737.90 765.13 C 739.68 757.87 738.77 750.34 739.03 742.95 C 739.27 736.87 736.65 731.10 737.00 725.02 C 736.82 718.67 737.85 712.07 735.59 705.98 C 731.74 695.95 726.01 686.78 719.92 677.97 C 715.14 670.39 709.22 662.51 700.44 659.46 C 696.02 657.91 693.59 653.25 689.08 651.84 C 682.22 649.66 675.29 646.85 667.96 647.21 C 663.92 647.32 659.38 647.52 656.13 644.71 C 651.42 641.40 650.72 635.29 648.61 630.37 C 646.85 626.47 645.61 622.38 644.56 618.24 C 642.91 611.58 638.10 606.19 636.82 599.40 C 634.56 590.25 639.89 581.16 637.58 572.01 C 636.06 566.13 636.68 559.93 634.94 554.11 C 632.56 545.49 630.83 536.65 627.72 528.25 C 626.24 524.97 621.97 525.83 619.07 525.13 C 628.56 512.57 647.88 513.85 656.67 500.47 C 660.38 494.47 666.50 489.52 667.29 482.11 C 668.21 476.43 670.09 470.68 668.96 464.88 C 668.16 460.52 666.53 456.09 667.86 451.65 C 669.71 444.21 669.54 436.45 667.95 428.98 C 665.92 418.42 665.10 407.59 666.63 396.90 C 662.39 395.13 658.12 393.42 653.82 391.83 C 646.83 389.06 638.97 388.60 632.65 384.22 C 622.39 378.40 616.36 367.17 605.38 362.43 C 600.66 360.46 596.04 358.28 591.60 355.74 C 592.56 353.12 593.96 350.71 595.61 348.46 C 598.70 344.56 597.24 339.07 600.06 335.01 C 605.28 326.67 606.77 316.82 610.66 307.91 C 612.92 301.48 617.31 296.11 619.84 289.80 C 621.44 285.87 623.29 282.05 625.47 278.41 Z" />
<path fill="#bbbbbb" opacity="1.00" d=" M 248.47 350.73 C 250.19 352.76 251.80 354.88 253.31 357.08 C 259.11 355.29 264.75 352.21 270.99 352.54 C 272.32 353.38 272.77 355.05 273.54 356.35 C 275.60 360.89 278.31 365.22 279.29 370.18 C 281.84 381.31 280.28 392.91 282.92 404.03 C 284.21 408.85 283.68 413.97 285.24 418.73 C 287.81 426.24 291.78 433.26 293.82 440.94 C 293.23 447.27 289.38 452.67 288.35 458.89 C 287.13 466.55 285.94 474.22 284.44 481.83 C 283.34 486.85 284.76 492.09 283.33 497.06 C 280.61 505.48 281.88 514.58 284.31 522.92 C 285.97 528.13 286.15 534.00 289.67 538.45 C 296.01 547.09 302.12 555.90 307.75 565.02 C 309.47 567.68 309.87 570.88 310.71 573.88 C 311.95 578.90 313.75 583.77 314.85 588.82 C 316.26 595.76 312.86 602.89 315.49 609.67 C 317.85 615.92 314.02 622.52 316.14 628.78 C 317.89 634.21 320.11 639.71 324.16 643.86 C 328.97 649.17 335.65 652.30 340.58 657.47 C 345.21 663.23 348.09 670.55 347.93 678.01 C 348.07 688.11 344.79 698.39 347.60 708.36 C 350.82 716.66 357.22 723.31 360.21 731.74 C 362.95 737.84 364.83 744.55 369.25 749.72 C 375.29 755.86 383.21 759.63 390.97 763.12 C 395.88 765.46 401.91 765.01 406.15 768.78 C 412.78 774.38 421.59 776.90 427.40 783.55 C 430.89 787.42 436.73 791.02 435.89 797.00 C 435.22 802.66 434.87 808.70 431.58 813.58 C 427.33 820.00 423.10 826.61 420.85 834.04 C 419.38 838.56 421.25 843.14 422.08 847.59 C 423.09 852.32 422.35 857.18 422.82 861.96 C 423.08 866.03 424.69 870.05 423.63 874.14 C 422.32 881.96 418.64 889.97 421.25 897.92 C 421.55 899.13 421.83 900.35 422.13 901.60 C 416.83 904.53 411.45 907.30 406.05 910.05 C 400.58 912.65 397.26 918.29 391.52 920.47 C 387.14 922.22 383.21 924.82 379.11 927.11 C 374.48 925.13 370.07 922.60 365.96 919.70 C 360.91 916.20 358.09 910.16 352.44 907.44 C 346.81 904.65 340.93 902.38 335.26 899.67 C 330.77 897.73 325.59 896.03 320.75 897.70 C 309.85 901.31 299.14 906.02 290.05 913.14 C 282.92 917.91 276.40 923.48 269.64 928.73 C 266.26 931.60 263.62 935.25 259.92 937.76 C 255.74 940.64 253.06 945.04 249.48 948.53 C 246.99 951.02 243.27 951.09 240.06 951.90 C 242.33 947.12 244.79 942.32 245.79 937.09 C 247.30 927.11 249.50 917.08 254.04 908.00 C 255.65 904.80 256.50 901.31 257.36 897.86 C 258.36 893.89 260.17 890.14 260.86 886.09 C 261.68 878.03 260.15 869.82 261.62 861.81 C 263.52 854.72 265.62 847.68 267.50 840.58 C 269.16 834.35 267.32 827.63 269.79 821.56 C 271.45 817.42 274.14 813.05 272.34 808.48 C 270.73 799.45 262.14 793.53 261.48 784.21 C 260.09 778.99 263.18 774.11 263.05 768.94 C 263.11 765.34 262.84 761.72 263.25 758.14 C 263.76 754.36 265.35 750.83 265.86 747.06 C 266.43 742.93 266.96 738.70 268.98 734.98 C 272.81 727.41 272.70 718.73 274.48 710.61 C 275.11 707.52 276.27 704.34 275.46 701.17 C 273.77 692.52 265.69 686.76 264.06 678.11 C 264.34 670.08 264.14 662.05 264.16 654.02 C 263.80 650.15 267.14 647.39 267.56 643.68 C 268.24 638.10 268.82 632.52 269.97 627.02 C 270.79 620.24 271.96 612.36 267.44 606.57 C 263.08 600.53 261.27 593.20 259.32 586.13 C 258.28 582.12 256.64 578.24 256.20 574.10 C 255.84 571.44 255.82 568.71 254.85 566.18 C 252.74 563.32 249.45 561.49 247.70 558.34 C 245.01 553.73 244.63 548.30 244.21 543.11 C 243.79 536.97 242.28 530.90 239.64 525.34 C 237.98 521.83 236.23 518.13 233.00 515.79 C 227.56 511.81 221.60 508.64 216.03 504.88 C 210.87 501.39 204.70 499.83 199.54 496.36 C 195.25 493.70 191.29 490.01 186.15 489.16 C 179.73 488.60 173.26 489.41 166.85 488.85 C 161.67 487.89 156.95 485.39 151.87 484.07 C 143.15 481.54 134.17 477.00 129.91 468.54 C 134.01 466.50 137.34 463.08 139.07 458.81 C 139.77 456.63 142.15 455.96 143.90 454.84 C 144.11 453.11 144.32 451.39 144.55 449.67 C 154.36 448.82 163.30 444.36 172.92 442.68 C 175.93 442.15 177.93 439.72 179.02 437.03 C 178.20 434.90 177.32 432.81 176.34 430.76 C 177.04 428.84 177.88 426.94 178.24 424.92 C 178.69 421.81 175.20 419.39 176.18 416.27 C 179.76 410.74 186.96 408.88 190.21 403.01 C 189.25 399.89 188.53 396.70 187.96 393.49 C 194.64 391.79 200.67 388.18 205.97 383.85 C 210.00 380.52 215.12 379.07 220.03 377.55 C 224.47 375.86 229.34 379.05 233.65 376.72 C 237.68 374.54 239.34 370.01 241.24 366.13 C 244.43 367.38 247.88 368.14 251.27 367.19 C 250.30 363.60 248.58 360.31 247.16 356.90 C 247.16 354.78 248.00 352.77 248.47 350.73 Z" />
<path fill="#bbbbbb" opacity="1.00" d=" M 369.48 432.60 C 374.90 430.82 380.45 433.25 385.94 432.96 C 389.17 433.03 392.85 432.18 395.64 434.28 C 408.92 443.25 419.01 456.12 427.33 469.65 C 433.38 480.34 431.64 493.33 436.38 504.47 C 439.00 510.55 440.87 517.38 446.07 521.86 C 450.60 525.78 453.20 531.40 457.79 535.25 C 460.69 537.63 463.33 540.30 466.00 542.93 C 469.16 546.09 473.68 547.18 477.20 549.82 C 480.09 551.94 482.64 554.48 485.52 556.62 C 488.09 558.61 491.08 560.32 492.72 563.25 C 494.49 566.27 495.60 569.61 497.16 572.74 C 502.17 582.03 500.58 593.27 505.16 602.73 C 508.50 609.21 516.49 611.69 519.60 618.35 C 521.77 624.02 522.72 630.59 520.40 636.37 C 519.00 639.98 517.60 643.58 516.37 647.26 C 514.34 653.02 510.36 657.80 506.24 662.20 C 502.89 665.76 501.89 670.69 499.80 674.97 C 498.38 678.18 496.36 681.33 496.36 684.96 C 497.43 692.50 500.70 699.61 505.25 705.68 C 508.66 710.28 510.81 716.19 509.27 721.92 C 507.66 730.44 500.77 736.24 495.97 743.00 C 492.39 747.91 486.56 751.56 485.35 757.90 C 483.86 766.32 486.24 774.71 487.10 783.06 C 487.83 786.51 487.56 790.55 490.23 793.22 C 490.20 797.35 489.89 801.65 491.57 805.55 C 495.14 814.10 500.35 821.94 503.05 830.85 C 504.75 836.26 506.72 841.58 508.29 847.04 C 503.06 844.07 497.47 841.76 492.49 838.36 C 488.34 835.64 486.66 830.75 483.80 826.91 C 481.29 826.61 478.77 826.73 476.28 827.11 C 475.83 830.68 475.57 834.47 473.74 837.67 C 471.31 840.08 467.60 840.95 465.73 843.99 C 462.66 848.53 458.34 853.09 458.32 858.85 C 460.21 863.70 465.42 866.14 469.03 869.63 C 464.27 875.64 458.76 881.28 451.97 884.98 C 446.41 888.02 440.70 890.80 435.38 894.27 C 432.25 896.34 428.79 897.85 425.23 899.02 C 424.01 891.63 425.20 884.17 427.11 877.02 C 427.83 873.72 428.95 870.29 427.88 866.94 C 426.66 862.72 426.62 858.32 426.80 853.97 C 427.05 848.85 424.92 844.05 424.57 839.01 C 424.39 833.63 426.76 828.64 429.23 824.02 C 432.22 818.57 437.27 814.12 438.41 807.77 C 439.26 803.24 440.33 798.71 440.57 794.10 C 438.74 788.36 433.58 784.66 429.45 780.61 C 423.02 774.29 414.80 770.37 407.42 765.36 C 403.36 762.30 398.45 760.87 393.68 759.35 C 385.50 756.19 376.65 753.17 370.76 746.30 C 365.01 739.89 365.31 730.45 360.32 723.60 C 355.76 716.97 350.83 710.07 349.77 701.89 C 348.33 694.10 352.78 686.77 352.04 678.96 C 352.54 671.31 348.98 664.32 345.16 657.96 C 341.16 651.93 334.74 648.23 328.99 644.09 C 329.33 642.89 329.67 641.69 330.00 640.50 C 324.63 638.22 320.77 632.91 320.50 627.05 C 320.27 620.74 320.70 614.38 319.57 608.13 C 318.14 600.16 320.37 591.83 317.66 584.05 C 315.72 577.91 314.24 571.62 312.43 565.45 C 308.05 558.28 302.45 551.87 298.63 544.34 C 296.18 539.35 291.34 535.64 290.27 530.00 C 289.50 526.49 288.89 522.94 287.77 519.53 C 285.34 512.06 285.38 503.88 287.38 496.33 C 288.72 490.87 287.56 485.15 288.86 479.67 C 290.36 473.51 290.68 467.16 291.19 460.87 C 291.72 454.49 295.49 449.07 297.35 443.08 C 302.82 444.66 308.54 443.99 314.07 443.19 C 327.82 441.96 341.27 438.82 354.85 436.49 C 359.84 435.66 364.66 434.11 369.48 432.60 M 511.40 621.03 C 510.00 622.30 509.53 624.70 511.98 625.01 C 512.51 624.64 513.58 623.91 514.11 623.54 C 513.38 622.52 512.46 621.67 511.40 621.03 Z" />
<path fill="#bbbbbb" opacity="1.00" d=" M 866.92 471.18 C 872.10 470.91 876.69 467.75 881.95 467.92 C 891.96 467.87 901.98 467.97 912.00 467.86 C 919.70 467.71 927.24 469.85 934.96 469.43 C 941.66 469.37 948.30 466.75 955.01 468.17 C 959.00 470.14 959.62 475.02 961.20 478.74 C 962.34 482.34 964.70 485.38 966.10 488.86 C 962.59 499.97 961.52 511.60 959.84 523.08 C 959.47 525.92 958.26 529.39 955.06 529.99 C 949.13 531.30 943.04 531.75 937.11 533.10 C 931.34 534.24 926.03 537.63 919.96 537.01 C 911.71 536.61 902.28 536.80 896.18 543.25 C 889.82 550.18 883.77 557.47 876.54 563.56 C 868.48 569.88 863.54 579.10 856.15 586.10 C 853.90 588.53 850.98 590.71 850.14 594.09 C 848.15 606.91 851.83 620.27 847.74 632.83 C 846.17 638.17 847.13 643.97 845.07 649.20 C 843.82 652.41 842.57 655.69 842.32 659.17 C 843.77 661.78 846.05 663.95 847.05 666.87 C 848.80 671.54 852.36 675.18 854.41 679.70 C 856.05 682.87 857.17 686.54 860.09 688.85 C 864.90 692.83 869.05 697.63 871.83 703.26 C 870.34 706.59 866.52 707.17 863.58 708.64 C 859.65 710.34 857.42 714.19 854.93 717.45 C 855.46 719.45 856.01 721.43 856.64 723.41 C 854.14 728.09 851.31 732.69 847.46 736.39 C 845.26 738.57 842.77 740.56 841.18 743.26 C 839.84 746.10 840.21 749.33 840.04 752.38 C 834.09 751.14 827.88 749.82 822.93 746.07 C 817.02 741.70 811.73 736.56 806.50 731.41 C 804.70 729.78 803.73 727.45 804.01 725.03 C 804.38 712.04 803.19 698.98 805.04 686.07 C 805.39 674.47 811.35 664.18 815.87 653.79 C 818.37 648.23 818.64 642.01 818.58 636.01 C 818.32 629.72 817.00 623.10 812.85 618.16 C 808.68 613.34 804.46 608.49 801.31 602.92 C 796.85 593.90 795.55 583.80 794.00 573.98 C 794.32 569.52 795.80 565.27 796.86 560.96 C 796.74 555.91 795.96 550.84 794.32 546.05 C 792.34 540.59 792.88 534.60 794.15 529.04 C 795.22 524.30 799.91 521.79 801.89 517.57 C 802.43 513.41 801.81 509.11 803.15 505.05 C 804.64 500.52 803.15 495.50 805.23 491.12 C 807.37 486.28 808.96 481.22 810.02 476.03 C 814.98 475.83 819.96 475.94 824.93 475.95 C 829.75 475.96 834.17 473.38 839.02 473.61 C 843.16 473.78 847.36 473.62 851.34 472.30 C 856.40 470.72 861.73 471.58 866.92 471.18 Z" />
<path fill="#bbbbbb" opacity="1.00" d=" M 127.68 471.80 C 129.09 473.52 131.10 475.50 130.15 477.95 C 127.41 488.06 125.41 498.47 125.60 508.99 C 125.90 516.04 128.13 522.89 127.91 529.98 C 127.54 537.44 129.83 544.64 130.95 551.95 C 131.92 557.26 132.33 562.66 133.44 567.94 C 134.49 572.88 136.89 577.37 138.36 582.17 C 139.78 592.04 133.77 600.53 129.99 609.11 C 127.24 614.92 127.30 622.00 123.01 627.07 C 119.21 630.56 113.92 631.68 109.06 632.93 C 102.69 634.70 96.23 632.50 89.89 631.78 C 86.04 631.17 81.47 630.43 79.27 626.80 C 75.88 621.47 77.20 614.91 77.27 608.96 C 69.76 609.30 62.25 608.45 54.91 606.85 C 54.62 602.71 57.23 599.47 58.94 595.98 C 59.77 591.29 55.52 587.56 55.74 582.96 C 56.97 576.53 61.46 571.33 63.12 565.03 C 64.71 560.04 63.16 554.83 61.96 549.94 C 60.65 545.36 57.87 540.42 52.96 539.08 C 47.69 540.55 45.74 546.29 43.43 550.65 C 39.13 550.13 37.99 545.57 35.23 542.97 C 33.31 540.73 29.95 538.49 31.19 535.07 C 34.24 529.33 39.90 525.24 46.10 523.48 C 50.32 522.31 52.54 518.26 54.99 515.00 C 57.16 516.29 59.21 518.27 61.81 518.52 C 64.25 517.67 66.48 516.27 68.99 515.60 C 71.36 516.27 73.40 517.69 75.46 518.98 C 78.95 517.80 83.48 517.40 85.41 513.82 C 85.62 510.48 83.61 507.47 83.40 504.17 C 85.11 500.90 89.01 499.92 92.20 498.70 C 92.80 503.08 93.58 507.56 96.13 511.30 C 97.47 509.62 99.22 508.10 99.78 505.96 C 100.37 502.26 99.59 498.48 100.31 494.81 C 101.34 491.40 103.40 488.44 105.17 485.39 C 108.64 486.74 112.09 488.46 115.86 488.65 C 121.14 484.18 123.74 477.38 127.68 471.80 Z" />
<path fill="#bbbbbb" opacity="1.00" d=" M 129.74 509.91 C 129.27 499.67 131.63 489.61 133.04 479.54 C 136.44 481.60 139.64 484.04 143.32 485.60 C 147.39 487.34 151.77 488.11 155.94 489.57 C 160.23 490.97 164.42 493.06 169.03 493.11 C 174.65 493.42 180.35 492.38 185.91 493.58 C 190.96 494.74 195.12 498.00 199.51 500.57 C 209.30 506.64 220.20 510.81 229.52 517.65 C 234.13 521.01 236.23 526.62 237.72 531.92 C 240.27 539.72 239.57 548.12 242.02 555.92 C 243.85 561.87 250.25 565.21 251.35 571.49 C 253.55 582.25 255.24 593.43 260.88 603.06 C 262.90 606.83 265.78 610.50 265.86 614.97 C 265.90 619.95 265.18 624.91 264.98 629.89 C 264.74 636.81 262.24 643.34 260.80 650.04 C 259.15 657.28 260.86 664.73 259.77 672.03 C 259.23 675.71 258.18 679.68 259.78 683.26 C 262.27 689.35 267.52 693.70 270.59 699.45 C 272.32 702.79 271.02 706.59 270.54 710.08 C 269.09 716.81 269.28 723.96 266.30 730.32 C 260.70 742.02 258.74 755.10 258.10 767.96 C 257.87 774.62 256.51 781.34 257.91 787.97 C 259.13 796.68 267.86 802.04 268.80 810.85 C 268.84 816.17 265.52 820.77 264.88 825.99 C 263.81 831.93 264.76 838.19 262.46 843.91 C 260.11 850.39 258.28 857.07 257.29 863.90 C 256.08 873.07 258.57 882.68 255.27 891.55 C 253.02 898.47 251.24 905.57 248.24 912.23 C 244.24 921.43 242.19 931.28 240.20 941.06 C 239.26 944.71 238.31 949.09 234.86 951.19 C 229.99 952.05 225.57 949.03 221.25 947.24 C 223.12 942.88 225.64 938.84 227.54 934.50 C 229.95 929.66 228.90 923.94 231.50 919.16 C 233.31 907.00 230.62 894.74 227.66 882.97 C 226.62 879.24 226.87 875.29 227.81 871.58 C 229.54 864.64 230.61 857.55 232.54 850.66 C 234.35 844.38 232.73 837.74 230.01 831.99 C 227.17 826.12 222.00 821.73 219.36 815.74 C 217.04 810.67 214.89 805.01 210.03 801.81 C 207.54 800.15 204.22 798.57 201.31 800.12 C 198.13 802.49 195.46 806.00 194.95 810.02 C 195.25 813.06 197.69 815.33 199.26 817.82 C 194.39 819.85 189.03 821.41 185.29 825.36 C 181.74 829.12 178.00 832.79 173.50 835.41 C 170.64 830.52 167.83 825.42 163.49 821.65 C 159.99 818.63 155.92 816.41 152.07 813.88 C 151.82 810.35 151.46 806.84 151.01 803.34 C 146.50 804.93 143.12 808.43 140.18 812.06 C 140.22 801.70 140.18 791.34 140.36 780.99 C 140.59 773.19 138.06 765.68 137.95 757.92 C 137.69 751.29 136.89 744.69 137.00 738.05 C 136.85 731.32 137.71 724.39 135.54 717.87 C 133.49 710.45 127.93 704.51 126.48 696.88 C 125.51 691.93 123.86 687.04 123.83 681.96 C 123.61 679.97 125.62 679.01 127.09 678.25 C 131.16 676.62 135.69 676.58 139.71 674.78 C 144.71 672.67 148.49 668.61 152.04 664.63 C 147.06 661.44 141.24 659.26 137.33 654.64 C 134.74 651.54 132.77 647.98 130.31 644.78 C 127.61 641.01 124.00 637.88 122.15 633.55 C 124.01 630.62 126.73 628.38 128.61 625.49 C 131.03 620.67 131.21 615.10 133.28 610.15 C 135.31 605.04 138.95 600.74 140.80 595.56 C 142.31 591.52 142.30 587.07 141.76 582.86 C 138.34 570.33 135.38 557.68 132.94 544.93 C 132.15 541.02 131.88 537.03 132.01 533.06 C 132.29 525.26 130.04 517.67 129.74 509.91 M 142.67 708.93 C 142.55 711.20 142.63 713.48 142.91 715.75 C 143.99 716.47 145.07 717.21 146.17 717.93 C 145.95 714.69 145.13 711.22 142.67 708.93 Z" />
<path fill="#bbbbbb" opacity="1.00" d=" M 590.58 534.71 C 594.45 531.95 597.63 527.16 602.91 527.30 C 610.31 527.68 617.61 529.21 624.98 529.92 C 626.63 538.40 629.46 546.56 631.68 554.89 C 633.52 561.19 631.93 567.89 633.69 574.21 C 635.50 581.11 632.56 588.02 632.87 594.97 C 632.69 600.25 634.35 605.43 637.08 609.92 C 643.36 620.42 643.88 633.28 650.30 643.71 C 652.95 648.06 657.93 650.69 662.95 650.97 C 672.91 651.01 683.02 652.68 692.08 656.96 C 690.72 660.91 691.29 665.47 688.83 669.01 C 686.66 673.04 682.27 675.08 680.00 679.04 C 674.16 683.44 667.75 687.15 660.96 689.88 C 653.97 692.72 646.23 690.40 639.09 692.42 C 633.03 694.04 627.40 697.05 621.20 698.20 C 616.45 687.46 617.35 674.85 610.83 664.80 C 612.87 656.55 613.53 647.96 612.27 639.54 C 611.96 634.23 608.73 629.63 604.90 626.18 C 601.69 623.32 599.21 619.78 596.66 616.35 C 592.87 609.86 593.07 601.63 588.31 595.60 C 585.24 591.69 583.48 586.65 579.27 583.73 C 570.73 577.23 564.45 567.03 564.81 556.05 C 565.02 552.03 564.95 547.42 567.00 543.97 C 575.15 541.83 583.55 539.58 590.58 534.71 Z" />
<path fill="#bbbbbb" opacity="1.00" d=" M 936.52 537.73 C 943.29 536.09 950.26 535.41 957.00 533.60 C 956.99 537.37 957.37 541.34 955.72 544.86 C 952.48 551.92 950.16 559.35 948.28 566.88 C 947.31 572.31 947.00 578.69 950.71 583.23 C 952.17 585.43 954.26 587.35 954.99 589.96 C 955.42 593.16 954.94 596.40 954.71 599.61 C 949.41 601.55 945.17 605.44 941.79 609.87 C 940.99 610.98 939.55 612.37 940.67 613.82 C 943.81 619.83 946.08 626.26 949.63 632.07 C 951.61 636.34 946.53 638.95 946.06 642.86 C 945.30 647.80 945.99 652.98 944.14 657.74 C 942.00 656.91 939.89 656.06 937.80 655.18 C 917.85 666.87 900.64 682.44 881.84 695.76 C 879.67 697.28 877.75 699.61 875.02 700.01 C 871.85 697.76 870.26 694.08 867.84 691.16 C 865.60 688.38 862.59 686.36 860.43 683.53 C 858.47 680.72 857.30 677.48 855.54 674.56 C 853.57 671.06 850.71 667.97 849.76 663.98 C 849.11 661.12 848.07 658.37 846.67 655.80 C 848.55 651.04 849.38 646.00 849.49 640.90 C 849.48 635.27 853.33 630.61 853.69 625.06 C 854.41 615.73 852.81 606.36 853.84 597.05 C 854.55 591.75 858.97 588.10 862.72 584.73 C 868.75 579.70 871.95 572.08 878.25 567.30 C 886.73 560.45 892.66 551.07 900.95 544.04 C 906.39 539.82 913.62 541.23 920.00 541.04 C 925.71 541.34 931.04 538.96 936.52 537.73 Z" />
<path fill="#bbbbbb" opacity="1.00" d=" M 70.48 631.93 C 70.36 629.34 73.49 626.40 75.93 628.19 C 79.79 630.54 82.69 634.73 87.42 635.45 C 93.21 636.27 99.03 637.31 104.91 637.16 C 109.39 637.10 113.55 635.27 117.73 633.89 C 122.86 640.27 127.66 646.89 132.36 653.60 C 135.31 657.95 139.31 661.47 143.67 664.37 C 144.34 664.98 145.45 665.35 145.75 666.31 C 142.26 669.30 138.12 671.59 133.54 672.34 C 129.07 673.13 124.21 674.47 121.61 678.53 C 118.68 681.74 120.13 686.22 120.96 689.96 C 122.13 694.73 122.11 699.92 124.63 704.29 C 127.08 708.84 130.87 712.82 131.88 718.04 C 133.63 727.23 132.38 736.63 132.88 745.92 C 132.77 754.33 134.41 762.60 135.67 770.87 C 136.75 777.87 136.28 784.97 136.41 792.02 C 136.48 798.20 136.63 804.38 136.49 810.57 C 132.58 810.93 128.57 811.23 124.97 812.96 C 114.48 817.82 105.31 825.16 94.56 829.51 C 87.63 832.40 81.40 836.86 74.16 839.02 C 69.51 840.42 64.86 841.83 60.26 843.40 C 57.87 844.13 55.38 845.18 52.84 844.57 C 46.87 843.25 41.02 840.76 36.55 836.50 C 31.25 831.53 25.04 827.28 17.94 825.44 C 14.32 824.36 10.62 825.66 7.02 826.14 C 7.70 823.42 7.38 819.73 10.28 818.26 C 14.41 816.01 19.27 815.67 23.42 813.47 C 27.54 811.38 30.85 807.94 35.17 806.26 C 39.57 804.99 44.27 805.89 48.70 804.80 C 54.70 801.12 57.39 794.13 62.70 789.73 C 66.76 787.42 71.83 787.58 75.71 784.83 C 79.83 781.88 85.00 780.96 89.17 778.14 C 92.67 774.34 95.73 769.29 95.01 763.91 C 94.58 759.62 93.79 755.37 93.06 751.13 C 91.29 748.82 88.45 747.08 87.94 744.03 C 85.75 735.45 82.83 726.99 82.19 718.10 C 81.88 712.02 81.31 705.97 80.87 699.90 C 80.29 693.41 78.06 687.23 76.10 681.06 C 74.29 675.46 70.06 671.22 66.80 666.46 C 70.64 661.98 75.10 657.31 75.71 651.14 C 76.56 644.21 71.41 638.55 70.48 631.93 Z" />
<path fill="#bbbbbb" opacity="1.00" d=" M 686.56 676.29 C 689.77 671.81 693.32 667.55 695.99 662.69 C 699.27 663.36 702.41 664.79 704.80 667.19 C 709.44 671.91 714.71 676.14 718.17 681.87 C 724.38 691.48 731.62 701.24 732.89 712.96 C 733.22 719.63 732.45 726.38 733.95 732.97 C 735.52 740.21 734.86 747.64 735.00 755.00 C 735.18 760.77 733.82 766.44 732.03 771.89 C 727.40 785.22 724.18 799.00 719.20 812.22 C 717.73 817.16 714.97 821.91 715.00 827.17 C 716.86 833.48 724.91 835.49 726.68 841.89 C 726.85 845.05 724.46 847.53 722.85 850.03 C 717.94 856.43 715.04 864.36 708.85 869.77 C 706.49 872.00 703.38 873.11 700.64 874.77 C 698.67 880.86 698.43 887.40 698.38 893.77 C 695.93 894.25 693.47 894.69 691.02 895.08 C 689.30 899.18 688.02 903.44 686.76 907.71 C 680.58 907.70 673.90 906.98 668.30 910.13 C 660.65 914.28 653.95 919.91 646.71 924.70 C 640.55 928.76 633.10 929.82 625.98 930.99 C 619.64 931.98 613.26 933.62 606.81 932.79 C 602.58 932.21 598.83 930.03 595.20 927.94 C 600.48 918.42 604.53 907.94 604.96 896.96 C 604.78 889.73 602.57 882.77 600.75 875.83 C 598.97 870.13 603.06 864.76 602.49 859.05 C 602.07 853.73 601.30 848.41 601.72 843.08 C 602.00 837.69 603.19 832.23 601.87 826.88 C 599.08 814.12 590.09 804.02 585.59 791.95 C 583.93 788.16 587.02 784.72 588.79 781.63 C 593.72 774.45 594.58 765.43 599.00 757.99 C 602.06 752.75 605.32 747.64 608.38 742.40 C 611.18 737.44 615.81 733.59 617.60 728.07 C 620.16 720.25 621.40 712.07 621.97 703.88 C 621.70 702.24 623.67 702.19 624.68 701.65 C 631.69 699.32 638.46 695.57 646.01 695.43 C 651.00 695.17 656.19 695.73 660.99 693.98 C 667.01 691.85 672.31 688.19 677.64 684.76 C 680.98 682.39 684.75 680.14 686.56 676.29 Z" />
<path fill="#bbbbbb" opacity="1.00" d=" M 549.93 896.21 C 550.17 893.32 551.38 890.34 554.28 889.26 C 554.39 892.29 552.76 895.02 549.93 896.21 Z" />
</g>
</svg>
